<?xml version="1.0" encoding="utf-8"?>
<!-- Generator: Adobe Illustrator 24.0.1, SVG Export Plug-In . SVG Version: 6.00 Build 0)  -->
<svg version="1.1" id="Layer_1" xmlns="http://www.w3.org/2000/svg" xmlns:xlink="http://www.w3.org/1999/xlink" x="0px" y="0px"
	 viewBox="0 0 250 74.253" style="enable-background:new 0 0 250 74.253;" xml:space="preserve">
<style type="text/css">
	.st0{fill:#005580;}
	.st1{fill:#FCB814;}
</style>
<g id="Layer_1_1_">
	<g>
		<g>
			<g>
				<path class="st0" d="M127.883,41.422c-0.279-0.558-0.558-0.744-1.488-1.953c-1.023-1.209-2.046-2.511-2.79-9.673
					c0-0.186,0-0.372-0.093-0.465c1.209-1.488,2.139-2.976,2.139-3.999c0-1.395-2.511-6.51-2.79-7.347
					c-0.186-0.465,0.279-1.116,0.372-2.232c0.093-0.558-0.093-1.209-0.651-1.674c-1.023-0.93-2.325-1.023-3.255-1.767
					c-0.93-0.744,0.279-1.302,1.023-2.046c0.372-0.372,0.558-1.209,0.744-1.023c0.093,0.093,0.465,0.558,0.93-0.279l0.558-0.744
					c0.093,0.093,0.186,0.093,0.186,0.093v0.186c0,0.186,0,0.372,0.093,0.558c0.093,0.372,0.186,0.558,0.279,0.744
					c-0.093,0.186-0.186,0.558-0.093,0.93c0.093,0.372,0.186,0.651,0.372,0.837c0.093,0.186,0.186,0.279,0.186,0.279
					c0.093,0.186,0.279,0.372,0.465,0.372h0.093c0,0.093,0,0.186,0.093,0.279c0.093,0.093,0.186,0.186,0.372,0.186
					c0.093,0,0.279,0,0.372-0.093s0.186-0.186,0.186-0.279v-0.186h0.093c0.837-0.186,1.302-0.837,1.302-0.93l0.186-0.372
					l-0.372,0.093c-0.279,0.093-0.651,0.186-0.93,0.372c0-0.186-0.186-0.372-0.372-0.465c-0.279,0-0.558,0.186-0.558,0.372v0.186
					c-0.093-0.093-0.186-0.093-0.279-0.093c0.186-0.186,0.186-0.558,0.186-0.93c-0.093-0.279-0.186-0.651-0.372-0.837
					c0,0,0-0.093-0.093-0.093c0.186-0.186,0.465-0.558,0.465-1.023c0.093-0.465-0.279-1.023-0.465-1.209V7.102
					c0.186-0.186,0.279-0.558,0.279-0.93c0-0.279-0.186-0.558-0.372-0.744l-0.186-0.186c-0.093-0.093-0.186-0.186-0.279-0.186
					c-0.186-0.186-0.186-0.186-0.465-0.744c-0.093-0.186-1.023-1.488-1.581-1.767c-0.558-0.279-1.023,0-1.023,0
					s-0.093-0.465-0.744-0.651c-0.372-0.093-1.302-0.186-2.046,0.093c-0.837,0.279-0.744,0-1.302-0.093
					c-0.837-0.186-1.488,0.372-1.488,0.372c-0.744-1.86-3.069-2.418-4.65-2.232c-2.232,0.279-3.069,1.581-3.441,2.976
					c-0.372,1.395,0.093,2.79,0.093,2.79c-0.279-0.093-0.465,0-0.465,0.558c0.093,0.465,0.744,1.767,0.93,1.767
					c0.372,0.093,0.465-0.186,0.465-0.186l1.116,2.232c0,0,0.279,0.465-0.093,1.023c-0.093,0.186-0.372,0.465-0.279,0.837
					l-0.93,0.279v1.395c0,0.093,0.093,0.372,0.186,0.744c0.186,0.093,0.465,0.186,0.744,0.186c0.186,0,1.023,0.651,1.116,0.744
					c0.186,0.093,0.372,0.372,0.465,0.372c0.093,0,1.023,0.186,1.116,0.186c0.093,0,3.627,0.093,5.301,0.465
					c0.651,0,2.046-1.209,3.255-1.302c1.116,0,1.581,1.581,0.93,2.883c0,0.093-0.186,0.279-0.372,0.279
					c-0.837,0.279-3.162,1.023-4.185,0.837c-0.372,0-0.744-0.093-1.209-0.186c-0.837-0.186-3.999-1.209-4.092-1.209
					c-0.093,0-0.279-0.093-0.465-0.093c-0.186,0-0.372-0.093-0.372-0.093s-0.558,0-1.116,0.093c0.186,0.279,0.372,0.744,0.465,0.837
					c0.093,0.093,0.093,0.465,0.093,0.651s0.093,0.558,0.093,0.651c0,0.186-0.093,0.465-0.093,0.558v0.465
					c0,0.093-0.186,0.093-0.372,0c-0.093-0.093-0.186-0.279-0.186-0.465v-0.651c0-0.093-0.186-0.558-0.186-0.558l-0.093,0.279
					c0,0-0.093,0.465-0.093,0.651s0.093,0.837,0.093,1.023c0,0.093,0.279,0.279,0.279,0.465c0.093,0.093,0.186,0.279,0,0.372
					c-0.186,0.093-0.372-0.093-0.372-0.093s0,0.093-0.093,0.186c-0.093,0-0.279-0.093-0.372-0.186
					c-0.186-0.093-0.279-0.186-0.372-0.279c-0.093-0.093-0.372-0.186-0.465-0.186c-0.093,0-0.093,0-0.186-0.093
					c0,0-0.465-0.558-0.558-0.651c0-0.093-0.186-1.023-0.186-1.023v-0.279c0-0.093,0.186-1.302,0.186-1.86
					c-0.093,0-0.279-0.186-0.279-0.279c0-0.093,0.093-0.186,0.093-0.186s-0.186-0.093-0.279-0.093
					c-0.186-0.093-0.279-0.186-0.279-0.279s0.093-0.186,0.093-0.186s-0.093,0-0.093-0.093c-0.093-0.093-0.093-0.186-0.093-0.279
					c0-0.093,0.093-0.186,0.093-0.186l-0.186-0.093c0-0.093-0.186-0.837-0.186-0.93s0.093-0.186,0.186-0.093
					c-0.186-0.465-0.372-1.023-0.465-1.581c-1.302,0.186-2.511,0.279-3.255,2.232c-0.93,2.418-2.511,5.394-3.255,7.44
					c-0.465,1.209,2.139,3.906,3.72,7.161c0,0.093,0.093,0.186,0.093,0.279v0.372c-0.744,7.161-1.116,8.185-2.139,9.394
					c-1.023,1.209-1.674,1.767-1.86,2.325c-0.093,0.279,0.186,1.023,1.674,0.837c1.395-0.093,2.418-1.209,2.883-2.232
					c0.186-0.465,0.558-0.744,0.744-0.651c0.186,0.093,0.093,0.651,0.093,0.651v1.023c0,0.372,1.581,22.414,1.86,26.507
					c0,0.372,0.093,0.744,0.093,0.93c0,0.186,0.837,0.186,0.837,0.372c-0.093,0.651-1.953,2.325-2.976,2.511
					c-1.953,0.372-1.86,1.953,0,1.953c3.999,0,4.185-0.837,5.115-1.023c1.395-0.279,1.953-0.558,1.953-1.023
					c0-0.651,0-1.023-0.093-1.209c0-0.465-0.279-0.93,0.186-1.116c0.558-0.186,1.209,0,1.209-0.465
					c0-0.465-0.093-25.391-0.093-25.763s0.558-0.558,0.651,0c0.186,0.558,1.116,8.278,1.116,8.278s0.186,13.207,0.186,13.486v1.86
					c0,0.279,0.651,0.093,0.744,0.279c0.093,0.279-0.186,1.023-0.279,1.581c0,0.465,0.186,0.837,0.93,1.023
					c0.744,0.186,0.837,0.279,1.488,0.837c0.744,0.651,1.395,2.046,3.906,2.046c1.674,0,2.139-0.93,1.86-1.395
					c-0.465-0.744-1.581-0.744-2.232-1.581c-0.372-0.465-0.744-1.116-1.023-1.674c-0.186-0.372-0.465-0.744-0.093-0.744
					c0.465,0,0.93,0.186,0.93-0.279c0-0.465,0.093-1.023,0.093-1.023l0.651-13.858c-0.744-18.88-0.744-18.508-0.744-19.345
					c0-0.558,0.186-0.558,0.279-0.279c1.395,2.325,1.674,2.976,1.023,4.464c-0.651,1.581,1.209,1.767,1.674,2.79
					c0.465,1.116,1.488,2.139,2.883,2.325C127.79,42.445,128.069,41.701,127.883,41.422"/>
				<path class="st1" d="M21.205,41.608c0.744,0.465,1.302,1.116,1.767,1.86c0.465,0.744,0.651,1.581,0.651,2.604
					c0,1.209-0.279,2.232-0.744,3.069c-0.465,0.837-1.209,1.488-2.232,1.953c-1.023,0.558-2.139,0.837-3.534,1.116
					c-1.302,0.186-2.883,0.279-4.65,0.279H0.093v-1.302c0.372,0,0.744-0.093,1.302-0.186c0.558-0.093,0.93-0.186,1.116-0.279
					c0.372-0.186,0.744-0.372,0.837-0.651c0.186-0.279,0.186-0.651,0.186-1.116V32.214c0-0.372-0.093-0.744-0.186-1.023
					c-0.093-0.279-0.465-0.465-0.93-0.744c-0.372-0.186-0.744-0.279-1.209-0.372C0.744,29.982,0.372,29.889,0,29.889v-1.302h12.928
					c3.255,0,5.58,0.465,7.068,1.395c1.488,0.93,2.139,2.232,2.139,3.999c0,0.837-0.186,1.488-0.465,2.139
					c-0.279,0.651-0.837,1.116-1.395,1.581c-0.558,0.372-1.209,0.744-1.953,1.116c-0.744,0.279-1.581,0.558-2.418,0.744v0.372
					c0.837,0.093,1.767,0.279,2.697,0.558C19.624,40.77,20.461,41.142,21.205,41.608 M15.718,34.353
					c0-1.302-0.372-2.325-1.116-3.069c-0.744-0.744-1.86-1.116-3.348-1.116H9.58v8.929h0.837c1.767,0,3.162-0.465,3.999-1.302
					C15.346,36.957,15.718,35.841,15.718,34.353 M16.927,45.886c0-1.674-0.465-2.976-1.488-3.813
					c-1.023-0.93-2.418-1.302-4.278-1.302H9.58v8.743c0.093,0.465,0.372,0.744,0.93,1.023c0.558,0.279,1.209,0.465,1.953,0.465
					c1.302,0,2.418-0.465,3.255-1.395C16.555,48.769,16.927,47.467,16.927,45.886 M47.247,31.284
					c1.209,1.116,2.139,2.418,2.79,3.906c0.651,1.488,1.023,3.255,1.023,5.208c0,1.767-0.279,3.441-0.837,4.929
					c-0.558,1.581-1.395,2.976-2.511,4.092c-1.116,1.209-2.511,2.139-4.092,2.79c-1.581,0.651-3.441,1.023-5.58,1.023
					c-1.767,0-3.348-0.279-4.929-0.837c-1.581-0.558-2.883-1.395-4.092-2.511c-1.209-1.023-2.046-2.325-2.79-3.906
					c-0.651-1.488-1.023-3.255-1.023-5.115c0-1.953,0.372-3.72,1.023-5.301c0.651-1.581,1.581-2.976,2.79-4.092
					c1.116-1.116,2.511-1.953,4.092-2.604c1.581-0.558,3.255-0.93,5.022-0.93c1.767,0,3.441,0.279,5.022,0.837
					C44.736,29.424,46.038,30.261,47.247,31.284 M42.876,48.397c0.465-1.023,0.837-2.232,1.116-3.441
					c0.186-1.302,0.372-2.79,0.372-4.371c0-1.395-0.093-2.697-0.279-4.092c-0.186-1.302-0.558-2.511-1.023-3.534
					c-0.465-1.023-1.116-1.86-1.953-2.511c-0.837-0.651-1.767-0.93-2.976-0.93c-2.046,0-3.534,0.93-4.65,2.883
					c-1.023,1.953-1.581,4.65-1.581,8.185c0,1.488,0.093,2.883,0.372,4.278c0.186,1.302,0.558,2.511,1.116,3.441
					c0.465,1.023,1.116,1.767,1.953,2.325c0.744,0.558,1.767,0.837,2.883,0.837c1.116,0,2.046-0.279,2.883-0.837
					C41.76,50.164,42.411,49.42,42.876,48.397 M76.265,29.982c-0.372,0-0.744,0.093-1.116,0.186
					c-0.372,0.093-0.651,0.279-0.93,0.465c-0.465,0.279-0.93,0.651-1.302,1.023l-1.116,1.395c-0.744,1.116-1.488,2.232-2.325,3.441
					c-0.837,1.209-1.674,2.604-2.604,4.185c-0.651,0.93-1.023,1.674-1.116,2.232c-0.186,0.558-0.186,1.395-0.186,2.697v3.348
					c0,0.372,0.093,0.744,0.186,1.023c0.186,0.279,0.465,0.558,0.837,0.744c0.186,0.093,0.558,0.186,1.209,0.279
					c0.651,0.093,1.116,0.186,1.395,0.186v1.302h-13.3v-1.302c0.279,0,0.744-0.093,1.395-0.093c0.558-0.093,1.023-0.186,1.209-0.279
					c0.372-0.186,0.744-0.372,0.837-0.744c0.186-0.279,0.186-0.651,0.186-1.116v-5.208c0-0.279-0.093-0.558-0.093-0.744
					c-0.093-0.186-0.186-0.465-0.372-0.837s-0.465-0.744-0.744-1.302c-0.837-1.488-1.674-2.976-2.511-4.278
					c-0.837-1.395-1.581-2.604-2.325-3.813c-0.372-0.651-0.744-1.116-1.116-1.488c-0.372-0.372-0.744-0.651-1.209-0.93
					c-0.279-0.186-0.651-0.279-1.116-0.372c-0.465-0.093-0.837-0.186-1.209-0.186v-1.302H62.5v1.302
					c-1.209,0-2.139,0.093-2.511,0.279c-0.465,0.186-0.651,0.372-0.651,0.558c0,0.093,0.093,0.372,0.279,0.744l0.837,1.674
					c0.372,0.744,0.93,1.767,1.674,3.069c0.744,1.302,1.581,2.79,2.604,4.464c2.139-3.348,3.627-5.766,4.371-7.068
					c0.744-1.302,1.209-2.139,1.209-2.511c0-0.372-0.186-0.651-0.651-0.837c-0.465-0.186-1.209-0.372-2.232-0.372v-1.302h8.836
					L76.265,29.982L76.265,29.982z M85.379,53.233c-1.488,0-2.79-0.186-4.092-0.558c-1.302-0.372-2.325-0.837-3.162-1.302
					l-1.116,1.209h-1.395l-0.186-8.65h1.488c0.372,0.837,0.744,1.674,1.209,2.604c0.465,0.93,1.116,1.767,1.767,2.418
					c0.651,0.744,1.488,1.395,2.325,1.86c0.837,0.465,1.86,0.744,2.976,0.744c1.488,0,2.697-0.372,3.534-1.116
					c0.837-0.744,1.209-1.674,1.209-2.79c0-0.93-0.372-1.767-1.023-2.325c-0.651-0.651-1.767-1.209-3.162-1.674
					c-0.93-0.279-1.767-0.558-2.604-0.837c-0.837-0.279-1.581-0.558-2.232-0.837c-1.581-0.651-2.79-1.581-3.534-2.79
					s-1.209-2.511-1.209-3.999c0-0.93,0.186-1.86,0.651-2.697c0.372-0.837,1.023-1.674,1.767-2.325
					c0.744-0.651,1.674-1.116,2.883-1.581c1.116-0.372,2.418-0.651,3.72-0.651s2.604,0.186,3.72,0.558
					c1.116,0.372,2.046,0.744,2.697,1.116l1.023-1.023h1.488l0.093,8.185h-1.488c-0.372-0.837-0.744-1.767-1.209-2.697
					c-0.465-0.93-0.93-1.674-1.395-2.325c-0.558-0.651-1.209-1.209-1.86-1.581c-0.744-0.372-1.581-0.558-2.511-0.558
					c-1.209,0-2.232,0.372-2.976,1.023c-0.744,0.651-1.116,1.581-1.116,2.511s0.372,1.767,1.023,2.325
					c0.651,0.651,1.674,1.116,3.162,1.581l2.511,0.837c0.837,0.279,1.674,0.558,2.325,0.837c1.581,0.651,2.883,1.488,3.72,2.604
					c0.837,1.116,1.302,2.511,1.302,4.092c0,1.023-0.279,2.046-0.744,2.976c-0.465,0.93-1.116,1.767-1.953,2.418
					c-0.93,0.744-1.953,1.302-3.069,1.674C88.263,53.047,86.868,53.233,85.379,53.233 M152.251,35.469h-1.302
					c-0.372-1.023-0.93-2.139-1.674-3.255c-0.744-1.209-1.488-1.767-2.139-1.86c-0.372,0-0.837-0.093-1.302-0.093
					c-0.558,0-1.023-0.093-1.395-0.093h-0.837v18.787c0,0.372,0.093,0.744,0.186,1.116c0.186,0.279,0.465,0.558,0.837,0.744
					c0.279,0.093,0.651,0.186,1.209,0.279c0.558,0.093,1.023,0.186,1.395,0.186v1.302h-13.3V51.28c0.372,0,0.744-0.093,1.395-0.186
					c0.558-0.093,1.023-0.093,1.209-0.186c0.465-0.186,0.744-0.465,0.837-0.744c0.186-0.279,0.186-0.651,0.186-1.116v-18.88h-0.744
					c-0.372,0-0.837,0-1.395,0.093c-0.558,0-0.93,0.093-1.302,0.093c-0.651,0.093-1.395,0.744-2.139,1.86
					c-0.744,1.209-1.302,2.232-1.674,3.255h-1.209v-6.882h23.158V35.469L152.251,35.469z M174.758,31.284
					c1.209,1.116,2.139,2.418,2.79,3.906c0.651,1.488,1.023,3.255,1.023,5.208c0,1.767-0.279,3.441-0.837,4.929
					c-0.558,1.581-1.395,2.976-2.511,4.092c-1.116,1.209-2.511,2.139-4.092,2.79c-1.581,0.651-3.441,1.023-5.58,1.023
					c-1.767,0-3.348-0.279-4.929-0.837c-1.581-0.558-2.883-1.395-4.092-2.511c-1.209-1.023-2.046-2.325-2.79-3.906
					c-0.651-1.488-1.023-3.255-1.023-5.115c0-1.953,0.372-3.72,1.023-5.301c0.651-1.581,1.581-2.976,2.79-4.092
					c1.116-1.116,2.511-1.953,4.092-2.604c1.581-0.558,3.255-0.93,5.022-0.93c1.767,0,3.441,0.279,5.022,0.837
					C172.247,29.424,173.642,30.261,174.758,31.284 M170.48,48.397c0.465-1.023,0.837-2.232,1.116-3.441
					c0.186-1.302,0.372-2.79,0.372-4.371c0-1.395-0.093-2.697-0.279-4.092c-0.186-1.302-0.558-2.511-1.023-3.534
					c-0.465-1.023-1.116-1.86-1.953-2.511c-0.837-0.651-1.767-0.93-2.976-0.93c-2.046,0-3.534,0.93-4.65,2.883
					c-1.023,1.953-1.581,4.65-1.581,8.185c0,1.488,0.093,2.883,0.372,4.278c0.186,1.302,0.558,2.511,1.116,3.441
					c0.465,1.023,1.116,1.767,1.953,2.325c0.744,0.558,1.767,0.837,2.883,0.837c1.116,0,2.046-0.279,2.883-0.837
					C169.364,50.164,170.015,49.42,170.48,48.397 M233.445,28.68v1.302c0.372,0.093,0.93,0.186,1.581,0.372
					c0.651,0.186,1.116,0.372,1.488,0.651c0.372,0.372,0.744,0.837,0.93,1.581c0.186,0.744,0.279,1.767,0.279,3.255v9.022
					L224.702,28.68h-17.95v1.302c0.372,0,0.837,0.093,1.302,0.186c0.465,0.093,0.93,0.186,1.209,0.279
					c0.372,0.093,0.651,0.279,0.93,0.465c0.186,0.186,0.279,0.372,0.279,0.651c0,0.372-0.093,0.837-0.186,1.395
					c-0.093,0.558-0.279,1.209-0.558,2.046c-0.372,1.302-0.837,2.883-1.395,4.743c-0.558,1.86-1.302,4.185-2.232,7.068l-6.324-17.95
					h-3.534l-5.394,17.392c-1.209-3.627-2.232-6.696-3.069-9.115c-0.837-2.418-1.395-4.092-1.674-5.022
					c0-0.186-0.093-0.372-0.093-0.465c0-0.186-0.093-0.279-0.093-0.465c0-0.093,0-0.186,0.093-0.279
					c0-0.093,0.186-0.186,0.372-0.279c0.186-0.093,0.465-0.186,0.837-0.279c0.372-0.093,0.93-0.186,1.674-0.279v-1.302h-12.742
					v1.302c0.465,0.093,0.837,0.093,1.209,0.186s0.651,0.279,0.93,0.465c0.465,0.279,0.744,0.558,1.023,0.837
					c0.279,0.279,0.465,0.744,0.744,1.302c0.651,2.046,1.488,4.464,2.511,7.44s2.418,7.161,4.278,12.649h3.348l5.673-17.764
					l6.324,17.764h3.348c1.395-4.092,2.697-7.999,3.999-11.719c1.302-3.813,2.232-6.51,2.883-8.185
					c0.186-0.465,0.372-0.93,0.558-1.302s0.558-0.651,1.116-0.93c0.279-0.186,0.651-0.279,0.93-0.465c0,0,0.372-0.093,0.744-0.093
					c0.279,0,0.558,0.093,0.651,0.093l0.837,0.279c0.465,0.186,0.93,0.558,1.395,0.93c0.372,0.372,0.651,0.837,0.837,1.302
					c0.186,0.465,0.279,1.023,0.279,1.581v11.161c0,1.581-0.093,2.697-0.279,3.348c-0.186,0.651-0.465,1.116-0.93,1.488
					c-0.372,0.279-0.837,0.465-1.395,0.558c-0.558,0.093-1.116,0.186-1.488,0.279v1.302h10.231V51.28
					c-0.372-0.093-0.93-0.186-1.581-0.372s-1.116-0.372-1.488-0.651c-0.372-0.372-0.744-0.837-0.93-1.581
					c-0.186-0.744-0.279-1.767-0.279-3.162V34.167l14.881,18.508h2.976V35.562c0-1.395,0.093-2.511,0.279-3.255
					c0.186-0.744,0.465-1.209,0.837-1.581c0.465-0.372,1.023-0.558,1.581-0.651c0.558-0.093,1.023-0.186,1.302-0.186v-1.302h-10.045
					C233.445,28.587,233.445,28.68,233.445,28.68z M215.123,30.168C215.123,30.168,215.216,30.168,215.123,30.168"/>
				<path class="st0" d="M24.926,68.579c-1.116,0-2.046-0.279-2.79-1.023l0.93-0.93c0.465,0.465,1.116,0.651,1.86,0.651
					c0.837,0,1.395-0.372,1.395-0.93c0-0.279-0.093-0.465-0.279-0.651c-0.186-0.186-0.279-0.186-0.651-0.279l-0.93-0.093
					c-0.651-0.093-1.116-0.279-1.488-0.651c-0.372-0.372-0.558-0.837-0.558-1.488c0-1.395,1.023-2.325,2.697-2.325
					c1.023,0,1.86,0.279,2.511,0.93l-0.93,0.93c-0.465-0.465-1.023-0.558-1.581-0.558c-0.837,0-1.209,0.465-1.209,0.93
					c0,0.186,0.093,0.372,0.186,0.558c0.186,0.186,0.372,0.279,0.744,0.279l0.93,0.093c0.744,0.093,1.116,0.279,1.488,0.558
					c0.372,0.372,0.558,0.93,0.558,1.581C27.809,67.742,26.6,68.579,24.926,68.579L24.926,68.579z M31.808,68.486v-0.465
					c-0.372,0.372-0.744,0.558-1.395,0.558s-1.116-0.186-1.395-0.465c-0.279-0.279-0.465-0.744-0.465-1.302
					c0-0.93,0.651-1.581,1.953-1.581h1.302v-0.279c0-0.651-0.279-0.93-1.023-0.93c-0.558,0-0.744,0.093-1.116,0.465l-0.93-0.837
					c0.558-0.558,1.116-0.744,2.046-0.744c1.581,0,2.418,0.651,2.418,1.953v3.72C33.203,68.579,31.808,68.486,31.808,68.486z
					 M31.808,66.161h-1.116c-0.465,0-0.744,0.279-0.744,0.651s0.279,0.651,0.837,0.651c0.372,0,0.651,0,0.837-0.279
					c0.186-0.186,0.186-0.372,0.186-0.744L31.808,66.161L31.808,66.161z M36.83,68.486h-1.116l-2.046-5.58h1.488l1.116,3.441
					l1.116-3.441h1.488L36.83,68.486L36.83,68.486z M39.621,61.976V60.86h1.395v1.116H39.621z M39.621,68.486v-5.58h1.395v5.58
					H39.621z M45.48,68.486v-3.348c0-0.744-0.465-1.023-0.93-1.023c-0.465,0-0.93,0.279-0.93,1.023v3.441h-1.395v-5.58h1.395v0.558
					c0.372-0.372,0.837-0.558,1.395-0.558c0.558,0,1.023,0.186,1.302,0.465c0.465,0.465,0.558,1.023,0.558,1.581v3.627H45.48V68.486
					z M50.13,70.625c-0.837,0-1.488-0.186-2.046-0.744l0.837-0.93c0.279,0.279,0.651,0.465,1.116,0.465
					c0.837,0,1.116-0.558,1.116-1.209v-0.558c-0.372,0.372-0.744,0.558-1.302,0.558c-0.558,0-1.023-0.186-1.302-0.465
					c-0.558-0.558-0.558-1.209-0.558-2.232s0-1.674,0.558-2.232c0.279-0.279,0.837-0.465,1.302-0.465
					c0.558,0,1.023,0.186,1.395,0.558v-0.558h1.395v5.394C52.548,69.695,51.618,70.625,50.13,70.625z M50.223,64.115
					c-0.837,0-0.93,0.744-0.93,1.488s0.093,1.488,0.93,1.488s0.93-0.744,0.93-1.488C51.153,64.766,51.06,64.115,50.223,64.115z
					 M58.873,68.579c-0.837,0-1.488-0.279-2.046-0.837c-0.744-0.744-0.744-1.767-0.744-3.069c0-1.302,0-2.325,0.744-3.069
					c0.558-0.558,1.209-0.837,2.046-0.837c1.395,0,2.511,0.837,2.79,2.418h-1.488c-0.186-0.651-0.558-1.116-1.302-1.116
					c-0.372,0-0.744,0.186-0.93,0.372c-0.279,0.279-0.372,0.651-0.372,2.139c0,1.488,0.093,1.86,0.372,2.139
					c0.186,0.279,0.558,0.372,0.93,0.372c0.744,0,1.116-0.465,1.302-1.116h1.488C61.384,67.742,60.268,68.579,58.873,68.579z
					 M65.848,68.486v-3.348c0-0.744-0.465-1.023-0.93-1.023s-0.93,0.279-0.93,1.023v3.441h-1.395V60.86h1.395v2.604
					c0.372-0.372,0.837-0.558,1.302-0.558c1.209,0,1.86,0.837,1.86,2.046v3.627C67.15,68.579,65.848,68.486,65.848,68.486z
					 M68.452,61.976V60.86h1.395v1.116H68.452z M68.452,68.486v-5.58h1.395v5.58H68.452z M72.824,68.486
					c-1.116,0-1.674-0.837-1.674-1.581V60.86h1.395v5.952c0,0.372,0.186,0.465,0.465,0.465h0.558v1.209
					C73.568,68.486,72.824,68.486,72.824,68.486z M77.567,68.486v-0.558c-0.372,0.465-0.837,0.558-1.395,0.558
					c-0.558,0-1.023-0.186-1.395-0.465c-0.558-0.558-0.558-1.488-0.558-2.325c0-0.837,0-1.767,0.558-2.325
					c0.279-0.279,0.837-0.465,1.395-0.465c0.558,0,1.023,0.186,1.395,0.558v-2.511h1.395v7.719h-1.395V68.486z M76.637,64.115
					c-0.837,0-0.93,0.651-0.93,1.581s0.093,1.581,0.93,1.581c0.837,0,0.93-0.744,0.93-1.581
					C77.567,64.766,77.474,64.115,76.637,64.115z M83.24,64.394c-0.186-0.186-0.372-0.372-0.744-0.372
					c-0.465,0-0.93,0.279-0.93,1.023v3.348h-1.395v-5.58h1.395v0.558c0.279-0.279,0.837-0.558,1.395-0.558
					c0.558,0,0.93,0.186,1.302,0.558L83.24,64.394L83.24,64.394z M85.752,66.161c0,0.744,0.465,1.209,1.209,1.209
					c0.651,0,0.93-0.186,1.302-0.558l0.837,0.837c-0.558,0.558-1.116,0.93-2.139,0.93c-1.302,0-2.604-0.558-2.604-2.883
					c0-1.86,1.023-2.883,2.418-2.883c1.581,0,2.418,1.116,2.418,2.697v0.651C89.193,66.161,85.752,66.161,85.752,66.161z
					 M87.705,64.58c-0.186-0.372-0.465-0.558-0.93-0.558c-0.465,0-0.744,0.279-0.93,0.558c-0.093,0.186-0.093,0.372-0.093,0.558
					h2.139C87.798,64.952,87.798,64.766,87.705,64.58z M93.471,68.486v-3.348c0-0.744-0.465-1.023-0.93-1.023
					c-0.465,0-0.93,0.279-0.93,1.023v3.441h-1.395v-5.58h1.395v0.558c0.372-0.372,0.837-0.558,1.395-0.558s1.023,0.186,1.302,0.465
					c0.465,0.465,0.558,1.023,0.558,1.581v3.627h-1.395V68.486L93.471,68.486z M133.557,68.486v-3.255h-2.604v3.255h-1.488v-7.719
					h1.488v3.162h2.604v-3.162h1.488v7.719H133.557L133.557,68.486z M137.556,66.161c0,0.744,0.465,1.209,1.209,1.209
					c0.651,0,0.93-0.186,1.302-0.558l0.837,0.837c-0.558,0.558-1.116,0.93-2.139,0.93c-1.302,0-2.604-0.558-2.604-2.883
					c0-1.86,1.023-2.883,2.418-2.883c1.581,0,2.418,1.116,2.418,2.697v0.651C140.997,66.161,137.556,66.161,137.556,66.161z
					 M139.509,64.58c-0.186-0.372-0.465-0.558-0.93-0.558s-0.744,0.279-0.93,0.558c-0.093,0.186-0.093,0.372-0.093,0.558h2.139
					C139.602,64.952,139.602,64.766,139.509,64.58L139.509,64.58z M144.996,68.486v-0.465c-0.372,0.372-0.744,0.558-1.395,0.558
					c-0.651,0-1.116-0.186-1.395-0.465s-0.465-0.744-0.465-1.302c0-0.93,0.651-1.581,1.953-1.581h1.302v-0.279
					c0-0.651-0.279-0.93-1.023-0.93c-0.558,0-0.744,0.093-1.116,0.465l-0.93-0.837c0.558-0.558,1.116-0.744,2.046-0.744
					c1.581,0,2.418,0.651,2.418,1.953v3.72C146.391,68.579,144.996,68.486,144.996,68.486z M144.996,66.161h-1.116
					c-0.465,0-0.744,0.279-0.744,0.651c0,0.372,0.279,0.651,0.837,0.651c0.372,0,0.651,0,0.837-0.279
					c0.186-0.186,0.186-0.372,0.186-0.744V66.161L144.996,66.161z M149.182,68.486c-1.116,0-1.674-0.837-1.674-1.581V60.86h1.395
					v5.952c0,0.372,0.186,0.465,0.465,0.465h0.558v1.209L149.182,68.486L149.182,68.486z M150.763,61.976V60.86h1.395v1.116H150.763
					z M150.856,68.486v-5.58h1.395v5.58H150.856z M156.715,68.486v-3.348c0-0.744-0.465-1.023-0.93-1.023s-0.93,0.279-0.93,1.023
					v3.441h-1.395v-5.58h1.395v0.558c0.372-0.372,0.837-0.558,1.395-0.558s1.023,0.186,1.302,0.465
					c0.465,0.465,0.558,1.023,0.558,1.581v3.627h-1.395V68.486L156.715,68.486z M161.365,70.625c-0.837,0-1.488-0.186-2.046-0.744
					l0.837-0.93c0.279,0.279,0.651,0.465,1.116,0.465c0.837,0,1.116-0.558,1.116-1.209v-0.558c-0.372,0.372-0.744,0.558-1.302,0.558
					s-1.023-0.186-1.302-0.465c-0.558-0.558-0.558-1.209-0.558-2.232s0-1.674,0.558-2.232c0.279-0.279,0.837-0.465,1.302-0.465
					c0.558,0,1.023,0.186,1.395,0.558v-0.558h1.395v5.394C163.784,69.695,162.853,70.625,161.365,70.625z M161.458,64.115
					c-0.837,0-0.93,0.744-0.93,1.488s0.093,1.488,0.93,1.488s0.93-0.744,0.93-1.488C162.388,64.766,162.295,64.115,161.458,64.115z
					 M168.992,62.162v1.86h2.976v1.302h-2.976v3.069h-1.488v-7.719h5.022v1.302h-3.534V62.162z M175.967,68.486v-0.465
					c-0.372,0.372-0.744,0.558-1.395,0.558c-0.651,0-1.116-0.186-1.395-0.465s-0.465-0.744-0.465-1.302
					c0-0.93,0.651-1.581,1.953-1.581h1.302v-0.279c0-0.651-0.279-0.93-1.023-0.93c-0.558,0-0.744,0.093-1.116,0.465l-0.93-0.837
					c0.558-0.558,1.116-0.744,2.046-0.744c1.581,0,2.418,0.651,2.418,1.953v3.72C177.362,68.579,175.967,68.486,175.967,68.486z
					 M175.967,66.161h-1.116c-0.465,0-0.744,0.279-0.744,0.651c0,0.372,0.279,0.651,0.837,0.651c0.372,0,0.651,0,0.837-0.279
					c0.186-0.186,0.186-0.372,0.186-0.744V66.161L175.967,66.161z M185.082,68.486v-3.348c0-0.744-0.465-1.023-0.93-1.023
					c-0.465,0-0.93,0.279-0.93,1.023v3.441h-1.395v-3.441c0-0.744-0.465-1.023-0.93-1.023s-0.93,0.279-0.93,1.023v3.441h-1.395
					v-5.58h1.395v0.558c0.372-0.372,0.837-0.558,1.395-0.558c0.651,0,1.116,0.186,1.488,0.744c0.465-0.465,1.023-0.744,1.674-0.744
					c0.558,0,1.023,0.186,1.395,0.465c0.465,0.465,0.651,1.023,0.651,1.581v3.627h-1.488V68.486L185.082,68.486z M187.686,61.976
					V60.86h1.395v1.116H187.686z M187.686,68.486v-5.58h1.395v5.58H187.686z M192.057,68.486c-1.116,0-1.674-0.837-1.674-1.581
					V60.86h1.395v5.952c0,0.372,0.093,0.465,0.465,0.465h0.558v1.209L192.057,68.486L192.057,68.486z M193.731,61.976V60.86h1.395
					v1.116H193.731z M193.824,68.486v-5.58h1.395v5.58H193.824z M197.545,66.161c0,0.744,0.465,1.209,1.209,1.209
					c0.651,0,0.93-0.186,1.302-0.558l0.837,0.837c-0.558,0.558-1.116,0.93-2.139,0.93c-1.302,0-2.604-0.558-2.604-2.883
					c0-1.86,1.023-2.883,2.418-2.883c1.581,0,2.418,1.116,2.418,2.697v0.651C200.986,66.161,197.545,66.161,197.545,66.161z
					 M199.591,64.58c-0.186-0.372-0.465-0.558-0.93-0.558s-0.744,0.279-0.93,0.558c-0.093,0.186-0.093,0.372-0.093,0.558h2.139
					C199.684,64.952,199.684,64.766,199.591,64.58L199.591,64.58z M203.962,68.579c-0.837,0-1.674-0.093-2.418-0.837l0.93-0.93
					c0.465,0.465,1.023,0.558,1.488,0.558s1.023-0.186,1.023-0.558c0-0.279-0.186-0.465-0.558-0.558l-0.837-0.093
					c-1.023-0.093-1.674-0.558-1.674-1.581c0-1.209,1.023-1.767,2.139-1.767c0.837,0,1.581,0.186,2.139,0.651l-0.837,0.837
					c-0.279-0.279-0.837-0.372-1.302-0.372c-0.558,0-0.837,0.279-0.837,0.558c0,0.186,0.093,0.465,0.558,0.465l0.837,0.093
					c1.116,0.093,1.674,0.744,1.674,1.674C206.38,68.021,205.264,68.579,203.962,68.579z M247.489,53.326
					c-1.395,0-2.511-1.116-2.511-2.511c0-1.395,1.116-2.511,2.511-2.511c1.395,0,2.511,1.116,2.511,2.511
					C250,52.21,248.791,53.326,247.489,53.326z M247.489,48.676c-1.209,0-2.139,0.93-2.139,2.139c0,1.209,0.93,2.139,2.139,2.139
					c1.209,0,2.139-0.93,2.139-2.139C249.535,49.606,248.605,48.676,247.489,48.676z M248.047,52.21l-0.651-1.116h-0.372v1.116
					h-0.372v-2.79h0.93c0.465,0,0.837,0.372,0.837,0.837c0,0.372-0.279,0.651-0.558,0.744l0.651,1.209H248.047z M247.489,49.792
					h-0.558v0.93h0.558c0.279,0,0.558-0.186,0.558-0.465S247.861,49.792,247.489,49.792z"/>
			</g>
		</g>
	</g>
</g>
</svg>
