<?xml version="1.0" encoding="utf-8"?>
<!-- Generator: Adobe Illustrator 24.0.1, SVG Export Plug-In . SVG Version: 6.00 Build 0)  -->
<svg version="1.1" id="Layer_1" xmlns="http://www.w3.org/2000/svg" xmlns:xlink="http://www.w3.org/1999/xlink" x="0px" y="0px"
	 viewBox="0 0 250.441 54.358" style="enable-background:new 0 0 250.441 54.358;" xml:space="preserve">
<style type="text/css">
	.st0{fill-rule:evenodd;clip-rule:evenodd;fill:#11165E;}
	.st1{fill:none;stroke:#11165E;stroke-width:0.882;stroke-linecap:round;stroke-linejoin:round;}
	.st2{filter:url(#Adobe_OpacityMaskFilter);}
	.st3{fill-rule:evenodd;clip-rule:evenodd;fill:#FFFFFF;}
	.st4{mask:url(#b_1_);fill-rule:evenodd;clip-rule:evenodd;fill:#11165E;}
	.st5{fill-rule:evenodd;clip-rule:evenodd;fill:#FFB91F;}
	.st6{fill:none;stroke:#FFB91F;stroke-width:0.5465;}
</style>
<g>
	<path class="st0" d="M0.508,45.009c1.537,14.781,35.256,7.305,49.523,4.682c23.97-4.408-66.232,11.81-35.805-17.251
		C14.226,32.44-0.673,33.673,0.508,45.009"/>
	<path class="st1" d="M0.508,45.009c1.537,14.781,35.256,7.305,49.523,4.682c23.97-4.408-66.232,11.81-35.805-17.251
		C14.226,32.44-0.673,33.673,0.508,45.009"/>
	<path class="st0" d="M59.623,30.229c0,0-4.756-10.838-14.512-10.197c-15.115,1.003-19.591,23.363-12.292,22.189
		c13.705-2.198,39.558-4.923,47.722-1.339c12.293,5.399,5.962,12.348,9.919,10.536c4.82-2.209,4.119-7.716,2.525-10.124
		c-4.233-6.396-21.066-10.667-43.842-4.269c-16.926,4.754-14.56-3.246-14.108-4.998C39.065,16.437,54.987,19.835,59.623,30.229
		 M94.045,6.953c-1.926-1.338-3.775-1.91-6.241-1.91c-5.393,0-9.245,4.127-9.245,9.895c0,6.343,3.891,10.507,9.863,10.507
		c2.157,0,3.813-0.344,5.854-1.184l0.886,2.444c-1.54,0.687-2.156,0.918-3.427,1.223c-1.271,0.306-2.312,0.42-3.506,0.42
		c-7.667,0-13.097-5.464-13.097-13.218c0-7.375,5.508-12.952,12.787-12.952c1.658,0,3.276,0.306,4.778,0.839
		c1.117,0.421,1.656,0.689,2.927,1.566L94.045,6.953z M106.527,13.678c-0.579-0.497-0.887-0.689-1.234-0.689
		c-1.08,0-2.467,1.567-4.121,4.547v10.317h-2.89v-17.31h2.89v3.133c2.156-2.751,3.235-3.591,4.547-3.591
		c0.652,0,1.462,0.421,2.232,1.184l-1.424,2.408L106.527,13.678z M118.235,12.646c-3.082,0-5.47,2.904-5.47,6.572
		s2.388,6.571,5.47,6.571c3.043,0,5.432-2.903,5.432-6.571S121.278,12.646,118.235,12.646 M118.235,28.349
		c-4.738,0-8.629-4.164-8.629-9.13c0-5.006,3.891-9.131,8.629-9.131c4.7,0,8.59,4.126,8.59,9.131
		C126.826,24.184,122.935,28.349,118.235,28.349 M137.304,28.349c-0.732,0-1.541-0.077-2.428-0.23
		c-1.656-0.306-2.387-0.573-4.12-1.451l1.195-2.407c0.577,0.306,1.001,0.536,1.309,0.689c1.232,0.572,2.774,0.954,4.007,0.954
		c1.771,0,3.081-0.955,3.081-2.293c0-0.42-0.153-0.916-0.346-1.185c-0.693-0.992-1.503-1.49-4.623-2.75
		c-3.389-1.414-4.544-2.599-4.544-4.7c0-3.016,2.541-4.89,6.624-4.89c0.732,0,1.503,0.038,2.235,0.19
		c1.309,0.23,1.926,0.497,3.39,1.301l-1.426,2.33c-1.116-0.689-1.618-0.918-2.503-1.146c-0.695-0.191-1.35-0.306-2.004-0.306
		c-1.965,0-3.235,0.879-3.235,2.177c0,0.422,0.154,0.803,0.423,1.071c0.694,0.687,1.156,0.955,4.315,2.254
		c3.698,1.529,4.74,2.713,4.74,5.425C143.391,26.476,141.117,28.349,137.304,28.349 M154.523,28.349
		c-0.732,0-1.541-0.077-2.427-0.23c-1.657-0.306-2.388-0.573-4.121-1.451l1.193-2.407c0.578,0.306,1.002,0.536,1.31,0.689
		c1.232,0.572,2.774,0.954,4.006,0.954c1.771,0,3.082-0.955,3.082-2.293c0-0.42-0.153-0.916-0.348-1.185
		c-0.693-0.992-1.502-1.49-4.623-2.75c-3.388-1.414-4.544-2.599-4.544-4.7c0-3.016,2.543-4.89,6.626-4.89
		c0.732,0,1.502,0.038,2.234,0.19c1.309,0.23,1.926,0.497,3.389,1.301l-1.425,2.33c-1.117-0.689-1.618-0.918-2.503-1.146
		c-0.694-0.191-1.349-0.306-2.003-0.306c-1.965,0-3.236,0.879-3.236,2.177c0,0.422,0.153,0.803,0.424,1.071
		c0.693,0.687,1.155,0.955,4.314,2.254c3.699,1.529,4.739,2.713,4.739,5.425c0,3.094-2.273,4.966-6.088,4.966 M174.477,13.678
		c-0.578-0.497-0.885-0.689-1.233-0.689c-1.079,0-2.466,1.567-4.121,4.547v10.317h-2.89v-17.31h2.89v3.133
		c2.157-2.751,3.235-3.591,4.544-3.591c0.656,0,1.465,0.421,2.234,1.184l-1.424,2.408L174.477,13.678z M186.187,12.646
		c-3.082,0-5.47,2.904-5.47,6.572s2.387,6.571,5.47,6.571c3.043,0,5.432-2.903,5.432-6.571S189.23,12.646,186.187,12.646
		 M186.187,28.349c-4.739,0-8.63-4.164-8.63-9.13c0-5.006,3.891-9.131,8.63-9.131c4.699,0,8.588,4.126,8.588,9.131
		C194.776,24.184,190.885,28.349,186.187,28.349 M208.453,19.944l-6.55,1.68c-0.423,0.803-0.499,1.185-0.499,1.872
		c0,1.377,0.924,2.256,2.35,2.256c1.308,0,2.195-0.422,4.7-2.216V19.944z M212.112,28.349c-2.388-0.153-3.235-0.763-3.389-2.407
		c-0.886,0.765-1.271,1.069-1.849,1.375c-1.081,0.612-2.467,0.995-3.7,0.995c-2.81,0-4.66-1.796-4.66-4.547
		c0-2.524,1.349-4.203,3.891-4.813l6.048-1.415v-3.132c0-1.414-1.08-2.139-3.315-2.139c-1.809,0-2.657,0.496-2.657,1.49
		c0,0.19,0.038,0.343,0.154,0.649l-2.926,0.612c-0.27-0.459-0.308-0.65-0.308-1.071c0-2.291,2.54-3.858,6.277-3.858
		c3.506,0,5.703,1.643,5.703,4.317v10.621c0.077,0.458,0.538,0.765,1.424,0.918L212.112,28.349L212.112,28.349z M229.485,16.582
		c0-1.338-0.038-1.72-0.346-2.293c-0.502-0.955-1.736-1.451-3.506-1.451c-3.699,0-6.088,2.636-6.088,6.801
		c0,3.476,1.966,5.997,4.662,5.997c1.04,0,2.312-0.42,3.39-1.184c0.656-0.459,1.078-0.879,1.887-1.872L229.485,16.582
		L229.485,16.582z M229.485,27.852v-2.179c-1.541,1.719-3.583,2.674-5.778,2.674c-4.276,0-7.281-3.552-7.281-8.672
		c0-5.578,3.738-9.589,8.899-9.589c1.849,0,3.043,0.343,4.161,1.185V0h2.928v27.852C232.413,27.852,229.485,27.852,229.485,27.852z"
		/>
	<g transform="translate(217.037 10.996)">
		<defs>
			<filter id="Adobe_OpacityMaskFilter" filterUnits="userSpaceOnUse" x="20.766" y="-0.91" width="12.638" height="18.263">
				<feColorMatrix  type="matrix" values="1 0 0 0 0  0 1 0 0 0  0 0 1 0 0  0 0 0 1 0"/>
			</filter>
		</defs>
		<mask maskUnits="userSpaceOnUse" x="20.766" y="-0.91" width="12.638" height="18.263" id="b_1_">
			<g class="st2">
				<path id="a_1_" class="st3" d="M20.766-0.91h12.638v18.263H20.766V-0.91z"/>
			</g>
		</mask>
		<path class="st4" d="M27.316,17.353c-0.732,0-1.541-0.077-2.426-0.23c-1.657-0.306-2.388-0.573-4.124-1.451l1.196-2.407
			c0.578,0.306,1.001,0.534,1.309,0.687c1.233,0.572,2.775,0.954,4.008,0.954c1.771,0,3.081-0.954,3.081-2.292
			c0-0.42-0.153-0.916-0.346-1.185c-0.693-0.992-1.504-1.49-4.623-2.75c-3.39-1.414-4.546-2.599-4.546-4.7
			c0.001-3.018,2.541-4.891,6.625-4.891c0.731,0,1.503,0.038,2.235,0.191c1.309,0.23,1.926,0.496,3.389,1.299l-1.425,2.33
			c-1.118-0.686-1.618-0.916-2.504-1.145c-0.694-0.192-1.349-0.306-2.003-0.306c-1.965,0-3.235,0.879-3.235,2.177
			c0,0.421,0.153,0.803,0.422,1.071c0.695,0.686,1.157,0.954,4.316,2.253c3.697,1.53,4.739,2.714,4.739,5.426
			C33.404,15.48,31.131,17.353,27.316,17.353"/>
	</g>
	<path class="st0" d="M117.532,41.952c-0.289-0.214-0.397-0.233-1.392-0.233h-1.357v2.818h1.357c0.885,0,1.068-0.036,1.448-0.361
		c0.326-0.285,0.47-0.626,0.47-1.093c0-0.503-0.18-0.88-0.525-1.131L117.532,41.952z M118.313,49.168l-2.28-3.501h-1.25v3.501
		h-1.375v-8.58h2.914c2.081,0,3.221,0.862,3.221,2.442c0,1.328-0.814,2.333-2.027,2.531l2.389,3.607
		C119.904,49.168,118.313,49.168,118.313,49.168z M132.065,49.168v-3.842h-5.466v3.842h-1.375v-8.58h1.375v3.607h5.466v-3.607h1.357
		v8.58H132.065z M143.936,41.575c-1.9,0-3.347,1.419-3.347,3.303c0,1.885,1.447,3.319,3.347,3.319c1.902,0,3.33-1.434,3.33-3.319
		C147.266,42.994,145.836,41.575,143.936,41.575 M143.936,49.329c-2.787,0-4.795-1.866-4.795-4.45c0-2.566,2.008-4.452,4.795-4.452
		c2.769,0,4.796,1.885,4.796,4.452C148.731,47.463,146.705,49.329,143.936,49.329 M159.825,42.312
		c-0.543-0.448-1.104-0.593-2.316-0.593h-1.702v6.319h1.592c1.248,0,1.847-0.162,2.444-0.628c0.689-0.557,1.14-1.58,1.14-2.55
		C160.983,43.874,160.548,42.904,159.825,42.312 M161.182,47.983c-0.778,0.809-1.882,1.185-3.565,1.185h-3.185v-8.58h3.185
		c1.665,0,2.787,0.377,3.584,1.185c0.706,0.717,1.231,2.027,1.231,3.105c0,1.095-0.489,2.297-1.249,3.104 M167.987,49.168v-8.58
		h5.355v1.131h-3.982v2.477h3.294v1.13h-3.294v2.71h4.092v1.131H167.987z M186.227,49.168h1.376v-8.58h-1.376V49.168z
		 M199.039,42.293c-0.452-0.305-0.651-0.393-1.085-0.52c-0.392-0.125-0.802-0.185-1.213-0.179c-1.104,0-1.773,0.395-1.773,1.059
		c0,0.179,0.036,0.341,0.109,0.448c0.254,0.377,0.542,0.539,2.225,1.346c1.628,0.79,2.153,1.381,2.153,2.441
		c0,1.526-1.193,2.441-3.149,2.441c-0.651,0-1.266-0.087-1.773-0.268c-0.361-0.144-0.614-0.269-1.232-0.647l0.618-1.166
		c0.541,0.393,0.776,0.539,1.121,0.682c0.434,0.179,0.941,0.289,1.43,0.289c1.012,0,1.611-0.432,1.611-1.151
		c0-0.574-0.291-0.951-0.978-1.273l-1.574-0.754c-1.322-0.628-1.918-1.345-1.918-2.262c0-1.418,1.231-2.332,3.148-2.332
		c0.562,0,1.121,0.072,1.61,0.215c0.4,0.109,0.616,0.216,1.159,0.503L199.039,42.293L199.039,42.293z M205.301,49.168v-8.58h1.376
		v7.448h4.09v1.131H205.301z M218.277,41.827l-1.485,3.841h2.949l-1.465-3.841H218.277z M221.116,49.168l-0.993-2.387h-3.711
		l-0.978,2.387h-1.374l3.53-8.794h1.356l3.528,8.794h-1.357H221.116z M234.2,49.275l-4.885-6.191
		c-0.289-0.378-0.398-0.557-0.454-0.79v6.875h-1.266v-8.58h1.375l4.888,6.103c0.143,0.197,0.306,0.519,0.342,0.79v-6.893h1.249
		v8.687H234.2z M247.61,42.312c-0.543-0.448-1.104-0.593-2.317-0.593h-1.702v6.319h1.592c1.249,0,1.847-0.162,2.445-0.628
		c0.687-0.557,1.14-1.58,1.14-2.55C248.769,43.874,248.334,42.904,247.61,42.312 M248.968,47.983
		c-0.779,0.809-1.882,1.185-3.564,1.185h-3.187v-8.58h3.187c1.663,0,2.785,0.377,3.583,1.185c0.706,0.717,1.231,2.027,1.231,3.105
		c0,1.095-0.489,2.297-1.249,3.104"/>
	<g>
		<path class="st5" d="M27.288,28.149l0.603-2l-14.712-3.197L27.288,28.149z"/>
		<path class="st6" d="M27.288,28.149l0.603-2l-14.712-3.197L27.288,28.149z"/>
		<path class="st5" d="M32.288,21.629l1.21-1.798L23.016,9.836L32.288,21.629z"/>
		<path class="st6" d="M32.391,21.558l1.177-1.819l-10.654-9.81L32.391,21.558z"/>
		<path class="st5" d="M40.502,16.484l2.418-0.199L40.502,1.093V16.484z"/>
		<path class="st6" d="M40.502,16.484l2.418-0.199L40.502,1.093V16.484z"/>
		<path class="st5" d="M53.618,16.367l6.652-11.995l-4.838,13.394L53.618,16.367z"/>
		<path class="st6" d="M53.618,16.367l6.652-11.995l-4.838,13.394L53.618,16.367z"/>
		<path class="st5" d="M27.1,27.392c-4.582-1.408-9.087-3.911-13.808-4.777c-0.451-0.084-1.7,0.358-0.749,0.533
			c4.608,0.846,9.025,3.317,13.501,4.693c0.362,0.109,1.786-0.225,1.056-0.448 M32.452,20.571
			c-3.155-3.415-5.913-7.181-9.071-10.591c-0.267-0.287-1.683-0.555-1.15,0.02c3.162,3.412,5.918,7.177,9.072,10.591
			c0.264,0.289,1.683,0.557,1.148-0.02 M41.781,12.326c-0.193-3.694-0.791-7.357-0.831-11.06c0-0.15-0.45-0.23-0.448-0.126
			c0.038,3.72,0.637,7.401,0.832,11.112C41.341,12.374,41.789,12.476,41.781,12.326 M55.176,16.425
			c1.514-3.99,3.567-7.836,5.386-11.7c0.125-0.269-0.277-0.503-0.404-0.233c-1.834,3.898-3.904,7.782-5.431,11.81
			C54.62,16.581,55.071,16.702,55.176,16.425"/>
	</g>
</g>
</svg>
