<?xml version="1.0" encoding="utf-8"?>
<!-- Generator: Adobe Illustrator 24.0.1, SVG Export Plug-In . SVG Version: 6.00 Build 0)  -->
<svg version="1.1" id="Layer_1" xmlns="http://www.w3.org/2000/svg" xmlns:xlink="http://www.w3.org/1999/xlink" x="0px" y="0px"
	 viewBox="0 0 250 197.111" style="enable-background:new 0 0 250 197.111;" xml:space="preserve">
<style type="text/css">
	.st0{fill-rule:evenodd;clip-rule:evenodd;fill:#004990;}
	.st1{fill-rule:evenodd;clip-rule:evenodd;fill:#A10059;}
	.st2{fill-rule:evenodd;clip-rule:evenodd;fill:#85A0CD;}
	.st3{fill-rule:evenodd;clip-rule:evenodd;fill:#4F6DA9;}
</style>
<title>The Autism Project</title>
<g>
	<path class="st0" d="M62.044,38.981c0,0-4.286-0.306-7.755-0.306v27.552c0,1.02,0.51,1.633,1.225,2.041h-7.041
		c0.816-0.408,1.225-1.02,1.225-2.041V38.675c-3.572,0-7.755,0.306-7.755,0.306c-1.122,0-2.041,1.02-2.449,1.837v-4.082h25.001
		v4.082C63.982,40.104,63.268,39.083,62.044,38.981"/>
	<path class="st0" d="M77.759,67.044c0.714-0.408,1.225-0.714,1.225-1.735V53.268c0-2.653-1.122-5.204-5-5.204
		c-2.143,0-4.184,1.225-5.102,2.347v14.899c0,1.02,0.51,1.327,1.327,1.735h-6.633c0.816-0.408,1.225-0.714,1.225-1.735v-26.94
		c0-1.327-0.918-1.531-1.633-1.837l5.715-1.122v13.164c1.02-0.918,3.98-3.265,7.041-3.265c3.674,0,7.041,2.143,7.041,6.327v13.674
		c0,1.02,0.408,1.327,1.225,1.735H77.759z M95.821,47.655c-3.47,0-5.306,3.061-5.715,6.225h10.715
		C100.923,49.39,98.372,47.655,95.821,47.655z M90.004,55.615v1.327c0,4.694,2.551,8.776,7.551,8.776
		c3.265,0,6.633-2.653,7.551-4.796c-0.102,3.776-3.776,7.551-8.878,7.551c-6.633,0-10.715-5.51-10.715-11.123
		c0-5,3.674-11.225,10.817-11.225c3.98,0,8.878,2.755,8.878,9.592C105.311,55.615,90.004,55.615,90.004,55.615z"/>
	<g transform="translate(0 32.8)">
		<path class="st0" d="M29.083,36.795c0,0-6.735,17.042-11.123,27.756h22.348C36.532,55.367,32.757,46.081,29.083,36.795z
			 M46.022,88.736c2.551-1.225,3.265-2.551,2.449-4.898c-0.612-1.225-3.367-7.551-6.429-15.103H16.327
			c-3.265,7.449-5.817,13.98-6.225,15.103c-0.816,2.245-0.51,3.878,2.041,4.898H0c2.755-1.837,3.674-2.959,4.592-4.898
			c1.735-3.776,27.246-63.982,27.246-63.982s25.613,60.207,27.246,63.982c0.816,2.041,1.531,3.265,5,4.898H46.022L46.022,88.736z"/>
	</g>
	<path class="st0" d="M92.759,122.25c-2.347-1.327-3.572-2.449-3.572-6.837c-2.959,3.265-7.347,6.837-14.388,6.837
		c-5.817,0-14.899-3.878-14.899-18.47V81.228c0-3.061-1.837-3.47-3.367-3.878l11.939-2.347v28.879
		c0,8.368,4.49,12.654,10.102,12.654c4.796,0,7.551-2.245,10.409-5V81.228c0-3.061-1.837-3.47-3.47-3.878l11.837-2.347v38.573
		c0,2.959,0.918,5.102,3.98,5.612C101.331,119.087,92.759,122.25,92.759,122.25z M117.76,122.25
		c-7.857,0-13.572-4.796-13.572-14.286V80.208h-4.184l12.654-13.164v9.082h10.817v4.082h-11.021v27.654
		c0,9.184,5.817,10.205,8.878,10.205c3.878,0,4.898-1.327,6.225-2.551C127.557,118.066,123.475,122.25,117.76,122.25
		 M128.475,122.25c1.429-0.918,2.551-1.633,2.551-3.776V81.33c0-3.061-1.837-3.47-3.47-3.98l11.939-2.449v43.471
		c0,2.245,1.02,2.857,2.551,3.776h-13.572V122.25z M156.844,122.25c-5.612,0-10.102-2.551-13.368-4.592v-12.654
		c1.633,6.837,6.123,13.368,12.756,13.368c7.245,0,9.184-5.51,9.184-7.857c0-4.796-3.572-6.327-10.613-10.307
		c-7.857-4.49-10.409-7.653-10.409-13.266c0-4.796,3.674-11.939,14.899-11.939c2.653,0,6.429,0.51,11.021,2.857v11.735
		c-1.633-5.102-4.898-11.225-11.021-11.225c-5.102,0-7.551,3.368-7.551,5.919c0,4.082,3.265,6.021,8.572,8.98
		c6.429,3.674,13.47,7.347,13.47,15.409C173.681,117.556,164.191,122.25,156.844,122.25"/>
	<path class="st0" d="M232.153,122.25c1.531-0.918,2.755-1.633,2.755-3.776V91.637c0-5.919-2.755-11.021-10.511-11.021
		c-3.98,0-8.266,2.755-10.817,6.327c0.204,0.51,0.204,1.02,0.204,1.531v29.899c0,2.245,1.02,2.857,2.653,3.776H202.56
		c1.633-0.918,2.551-1.633,2.551-3.776V91.229c0-5.715-2.449-10.613-10.409-10.613c-4.592,0-8.164,2.755-10.102,5.102v32.654
		c0,2.245,1.225,2.857,2.755,3.776h-13.98c1.633-0.918,2.653-1.633,2.653-3.776V81.33c0-3.061-1.939-3.47-3.572-3.98l12.245-2.449
		v6.939c2.449-1.939,7.755-6.939,14.592-6.939c5.613,0,11.633,3.061,13.572,8.776c3.061-4.082,9.388-8.776,15.817-8.776
		c6.837,0,14.797,4.286,14.797,13.674v29.797c0,2.245,1.02,2.857,2.653,3.776h-13.98V122.25z M60.513,128.271
		c-3.878,0-5.612,0.102-5.612,0.102v25.205c0.714,0.306,2.347,0.612,4.082,0.612c4.49,0,14.286-1.633,14.286-13.266
		C73.269,133.067,68.983,128.271,60.513,128.271 M71.534,155.721c-2.551,1.225-10.205,3.163-16.633,0.51v22.654
		c0,1.837,0.918,3.061,2.347,3.776H44.696c1.225-0.714,2.347-1.939,2.347-3.776v-50.206c0-1.939-1.122-3.163-2.347-3.878h16.021
		c16.735,0,20.817,9.184,20.817,15.817C81.534,149.905,74.085,154.497,71.534,155.721 M100.311,149.394
		c-3.163,0-5.612,2.551-7.245,4.694v26.736c0,1.939,0.918,2.449,2.143,3.265H83.779c1.327-0.816,2.143-1.429,2.143-3.265v-31.94
		c0-2.653-1.633-3.061-2.959-3.47l10.205-2.041v7.551c1.735-3.061,6.021-7.551,8.98-7.551c2.041,0,2.143,0.204,3.163,0.714v8.062
		C103.984,150.415,102.556,149.394,100.311,149.394 M121.74,146.333c-7.347,0.204-10.409,8.878-10.205,17.858
		c0.306,9.184,4.388,16.837,11.327,16.531c7.347-0.306,10.613-8.164,10.205-17.552C132.863,154.599,129.189,145.925,121.74,146.333
		 M122.352,183.988c-13.266-0.102-18.368-11.327-18.368-20.307c0-10.102,6.837-20.409,18.572-20.409
		c12.654,0.102,18.368,10.409,18.266,20.409C140.823,173.681,133.475,183.988,122.352,183.988"/>
	<g transform="translate(82.926 80.36)">
		<path class="st0" d="M65.27,57.258c-2.347,0-4.388-1.939-4.388-4.286c0-2.245,1.939-4.082,4.388-4.082
			c2.245,0,4.184,1.837,4.184,4.082C69.454,55.319,67.515,57.258,65.27,57.258 M57.821,116.751c-3.776,0-5.817-1.225-7.449-2.245
			l-0.204-7.347c1.225,4.388,3.163,6.633,6.225,6.633c5.204,0,5-6.327,5-6.327V67.871c0-2.653-1.633-2.959-2.857-3.367l10.307-2.041
			v42.553C68.944,111.342,64.046,116.751,57.821,116.751"/>
	</g>
	<path class="st0" d="M173.783,146.333c-6.225,0-9.49,5.51-10.205,11.327h19.389C182.967,149.394,178.477,146.333,173.783,146.333z
		 M163.272,160.721v2.347c0,8.572,4.592,16.021,13.572,16.021c5.919,0,11.939-4.796,13.572-8.776
		c-0.306,6.939-6.837,13.674-15.919,13.674c-11.939,0-19.287-10.102-19.287-20.205c0-9.184,6.531-20.511,19.593-20.511
		c7.245,0,16.021,5,16.021,17.45L163.272,160.721L163.272,160.721z"/>
	<path class="st0" d="M209.601,183.988c-13.062,0-18.776-10.919-18.776-20.307c0-8.266,5.715-20.409,20.001-20.409
		c5.204,0,11.123,3.061,11.123,3.061v11.531c-1.837-6.531-6.225-11.327-11.531-11.327c-8.266,0-11.837,8.674-11.837,16.123
		c0,8.572,4.388,16.429,13.266,16.429c6.123,0,9.898-3.265,11.939-5.204C223.479,176.64,219.193,183.988,209.601,183.988
		 M237.561,182.661c-6.735,0-11.633-4.082-11.633-12.245v-23.777h-3.572l10.919-11.327v7.755h11.531v3.572h-11.735v23.777
		c0,7.96,5,8.776,7.653,8.776c3.367,0,4.184-1.225,5.306-2.143C246.031,179.09,242.46,182.661,237.561,182.661"/>
	<path class="st1" d="M207.866,24.797v-0.408c0-2.449-0.204-3.878-0.612-4.082c0,0-0.102-0.102-0.51-0.102
		c-0.714,0-1.735,0.204-2.551,0.306c-0.408,0.102-0.816,0.102-1.02,0.204c-2.551,0.204-5.102,0.306-7.653,0.408
		c-2.653,0-7.653,0.102-9.49-2.347c-0.714-0.918-0.816-2.245-0.408-3.674c0.408-1.429,1.327-2.449,2.245-3.47
		c1.225-1.327,2.347-2.551,2.245-4.49c-0.102-3.265-2.143-5.817-5.204-6.633C183.579,0.204,182.253,0,180.824,0
		c-2.347,0-4.49,0.51-6.123,1.429c-1.735,1.02-2.245,2.551-2.245,3.674c-0.204,2.449,1.225,5.612,3.265,7.245
		c1.225,1.327,1.122,2.551,0.816,3.367c-0.714,1.939-3.163,3.47-5.102,3.674c-0.918,0.102-1.837,0.102-2.959,0.102
		c-2.245,0-4.49-0.204-6.531-0.408c-0.306,0-0.714-0.102-1.02-0.204c-0.714-0.102-1.531-0.306-1.939-0.204
		c-0.816,0.204-1.225,1.327-1.531,2.449c-0.102,0.204-0.102,0.408-0.204,0.51c-1.225,3.572-1.02,6.939,0.51,9.796
		c0.714,1.429,2.041,3.98,4.082,3.98c0.306,0,0.612-0.102,0.918-0.204c0.714-0.204,1.225-0.612,1.837-1.02
		c0.714-0.51,1.429-0.918,2.347-1.225c2.755-0.816,4.694-0.102,5.51,2.143c1.123,2.959-0.102,7.96-2.551,10.102
		c-0.918,0.816-1.837,1.225-2.857,1.225c-1.531,0-2.959-0.918-4.388-1.837c-1.327-0.816-2.653-1.633-3.878-1.633
		c-0.408,0-0.816,0.102-1.225,0.306c-2.143,1.02-2.959,4.694-2.041,10.409l1.122,7.143c0,0.204,0.102,0.51,0.102,0.918
		c0,0.714,0.204,2.245,0.408,2.449c0.102,0.102,0.51,0.204,1.633,0.204c0.816,0,1.837-0.102,2.653-0.204
		c0.612-0.102,1.122-0.102,1.531-0.102h0.51c0.714,0,1.429,0,2.143-0.204c2.041-0.408,4.082-1.02,6.123-1.531
		c4.286-1.225,8.878-2.449,13.47-2.245c3.367,0.102,6.429,1.225,9.388,2.245c1.633,0.612,3.368,1.225,5.102,1.633
		c0.51-2.041,1.225-3.98,1.939-5.919c1.327-3.572,2.755-7.347,2.347-11.225c-0.204-1.735-0.612-2.857-2.347-2.857
		c-1.02,0-1.939,0.306-2.959,0.612c-1.02,0.306-2.041,0.612-3.061,0.612c-0.102,0-0.306,0-0.408,0c-1.633,0-3.061-0.306-4.286-0.918
		c-2.449-1.225-2.857-4.49-2.245-7.245c0.612-2.551,2.347-5.204,4.898-5.204c0.51,0,0.918,0.102,1.429,0.306
		c0.612,0.204,1.327,0.51,2.041,0.816c1.633,0.714,3.368,1.531,5.102,1.531c1.225,0,2.245-0.408,3.163-1.225
		C207.662,31.328,207.968,27.144,207.866,24.797"/>
	<path class="st2" d="M163.885,43.471c1.225,0.816,2.347,1.531,3.265,1.531c0.306,0,0.816-0.102,1.531-0.714
		c1.735-1.531,2.755-5.612,2.041-7.857c-0.306-0.816-0.816-1.122-1.633-1.122c-0.408,0-0.918,0.102-1.429,0.204
		c-0.612,0.204-1.225,0.612-1.837,1.02c-0.714,0.408-1.429,0.918-2.245,1.225c-0.51,0.204-1.123,0.306-1.735,0.306
		c-3.163,0-4.898-3.265-5.817-5.102c-1.735-3.367-2.041-7.347-0.612-11.429c0-0.102,0.102-0.306,0.102-0.408
		c0.204-0.714,0.51-1.633,0.918-2.347c-1.02-0.102-2.041,0-2.857,0.102c-0.306,0-0.714,0.102-1.02,0.204
		c-1.531,0.306-3.265,0.612-4.388-1.02c-1.633-2.245-0.408-4.286,0.714-6.225c0.612-1.02,1.225-2.041,1.327-2.959
		c0.306-1.939-0.204-3.47-1.327-4.592c-2.041-1.939-5.817-1.939-8.47-1.429c-2.041,0.408-3.47,1.429-4.082,2.857
		s-0.408,3.265,0.612,5.102c1.327,2.245,1.735,4.286,1.225,5.919c-0.408,1.327-1.531,2.245-3.265,2.959
		c-1.735,0.612-5.408,1.429-7.347-0.204c-0.51-0.408-0.918-0.918-1.327-1.429c-0.51-0.51-1.02-1.122-1.531-1.531
		c-2.653-2.041-4.796-2.551-6.429-1.429c-2.245,1.531-3.367,6.531-2.143,9.184c0.816,1.735,2.755,2.653,5.612,2.653
		c0.306,0,0.816-0.102,1.429-0.204c1.633-0.306,3.572-0.612,4.286,0.408c0.51,0.714,0.204,1.837,0,2.653
		c0,0.102-0.102,0.306-0.102,0.408l-8.062,34.287c0.204,1.327,0.204,1.327,1.327,1.429c0.204,0,0.408,0.102,0.714,0.102
		c0.51,0.102,1.122,0.204,1.633,0.306c2.449,0.408,4.898,0.918,7.143,0.306c1.939-0.51,4.184-1.939,4.694-3.776
		c0.408-1.531-0.102-3.163-0.612-4.694c-0.204-0.714-0.51-1.429-0.612-2.143c-0.51-2.755-0.816-6.225,1.837-8.674
		c1.429-1.327,3.47-2.041,5.817-2.041l0,0c1.429,0,2.959,0.816,4.082,2.245c1.531,1.939,2.143,4.49,1.633,6.531
		c-0.204,0.918-0.918,2.347-1.531,3.878c-1.327,2.959-2.959,6.531-2.041,7.755c0.306,0.408,0.918,0.51,1.939,0.408
		c0.714-0.102,1.429-0.204,2.347-0.408c2.245-0.408,4.796-0.816,7.143-1.122c-0.204-0.714-0.306-1.531-0.306-2.449l0,0
		c0-0.306,0-0.612-0.102-0.714l-1.122-7.143c-1.02-6.837,0.102-11.021,3.265-12.45c0.714-0.306,1.429-0.51,2.143-0.51
		C160.823,41.532,162.354,42.553,163.885,43.471"/>
	<path class="st3" d="M247.97,28.165c1.327-1.531,2.347-4.796,1.939-7.653c-0.204-1.02-0.612-2.347-1.837-3.061
		c-2.143-1.225-4.286,0.102-6.429,1.531c-0.918,0.612-1.837,1.225-2.755,1.531c-1.633,0.612-3.163,0.51-4.796,0.408h-0.612
		c-3.061-0.204-7.857-0.51-7.857-5.306c0-1.531,0.714-2.857,1.429-4.082c0.612-1.122,1.225-2.245,1.225-3.367
		c0.102-2.449-1.633-4.388-4.592-5.102c-3.265-0.816-7.653,0.102-8.98,3.061c-1.02,2.143,0.204,3.776,1.531,5.51
		c1.225,1.735,2.551,3.47,1.633,5.715c-0.918,2.143-4.388,2.755-7.857,3.061c0.204,0.816,0.306,2.041,0.306,3.878v0.408
		c0.102,3.265-0.408,7.755-3.368,10.307c-1.327,1.122-2.857,1.735-4.49,1.735c-2.143,0-4.082-0.918-5.919-1.735
		c-0.714-0.306-1.327-0.612-1.837-0.816c-0.204-0.102-0.408-0.102-0.714-0.102c-1.327,0-2.449,1.837-2.857,3.674
		c-0.51,1.939-0.204,4.286,1.122,5c1.02,0.51,2.347,0.714,3.674,0.714c0.816,0,1.633-0.306,2.551-0.51
		c1.122-0.306,2.245-0.714,3.572-0.714c2.551,0,4.082,1.531,4.388,4.694c0.408,4.286-1.02,8.266-2.449,12.143
		c-0.714,2.041-1.429,4.082-1.939,6.021v0.102c0.714,0.306,1.327,0.51,1.837,0.714l0.612,0.204c2.959,0.918,7.96,2.551,9.49-0.612
		c0.918-1.837,1.531-3.47,1.02-5.408c-0.714-2.755-1.123-5.102-1.327-7.347c-0.204-2.551,1.429-4.694,4.49-5.817
		c3.163-1.122,7.449-0.612,9.082,2.041c2.041,3.265,0.714,6.123-0.714,8.878c-0.816,1.633-1.633,3.367-1.735,5.204
		c0,0.816,0.204,1.429,0.51,1.735c0.816,0.714,2.449,0.51,3.98,0.204c0.918-0.102,1.735-0.204,2.449-0.204
		c2.755,0.204,5.613,0.816,8.674,1.837l-0.51-3.47c-0.816-6.123-1.735-12.654-2.653-19.185l-0.102-0.714
		c-0.306-2.041-0.612-4.082-0.918-6.123c-0.102-0.408-0.204-0.816-0.306-1.327c-0.51-2.347-1.327-5.817,0-7.551
		c0.51-0.714,1.225-1.02,2.245-1.02c1.429,0,2.347,0.714,3.367,1.429c0.918,0.714,1.837,1.327,2.959,1.225
		C246.133,29.491,247.256,28.981,247.97,28.165"/>
</g>
</svg>
