<?xml version="1.0" encoding="utf-8"?>
<!-- Generator: Adobe Illustrator 24.0.1, SVG Export Plug-In . SVG Version: 6.00 Build 0)  -->
<svg version="1.1" id="Layer_1" xmlns="http://www.w3.org/2000/svg" xmlns:xlink="http://www.w3.org/1999/xlink" x="0px" y="0px"
	 viewBox="0 0 388 392" style="enable-background:new 0 0 388 392;" xml:space="preserve">
<style type="text/css">
	.st0{fill:#FFFFFF;}
</style>
<g>
	<g>
		<g>
			<g>
				<path d="M198.019,355.714c-2.306,0.84-4.019-0.642-4.019-3.305v-0.026c0-2.636,1.679-5.407,4.086-6.284
					c1.477-0.539,2.361-0.278,3.089,0.304l-1.097,1.897c-0.605-0.429-1.22-0.602-2.004-0.316c-1.321,0.481-2.272,2.126-2.272,3.716
					v0.026c0,1.589,0.929,2.576,2.272,2.086c0.896-0.327,1.444-0.95,2.06-1.837l1.097,0.912
					C200.425,354.201,199.53,355.163,198.019,355.714z"/>
				<path d="M208.886,351.595l-0.717-1.818l-3.314,1.208l-0.716,2.341l-1.758,0.64l3.358-10.563l1.59-0.579l3.358,8.116
					L208.886,351.595z M206.512,345.572l-1.041,3.386l2.082-0.759L206.512,345.572z"/>
				<path d="M217.146,348.586l-1.679-2.355l-1.355,0.493v2.967l-1.724,0.628v-9.272l3.582-1.305
					c1.847-0.673,2.955,0.075,2.955,1.983v0.026c0,1.497-0.683,2.687-1.679,3.486l1.914,2.614L217.146,348.586z M217.179,342.467
					c0-0.874-0.515-1.137-1.354-0.831l-1.713,0.624v2.663l1.746-0.636c0.839-0.306,1.321-1.011,1.321-1.793V342.467z"/>
				<path d="M221.089,347.149v-9.272l5.91-2.154v1.815l-4.198,1.53v1.881l3.694-1.346v1.815l-3.694,1.346v1.947l4.254-1.55v1.815
					L221.089,347.149z"/>
				<path d="M237.35,341.224l-3.728,1.358v-9.272l3.638-1.326c1.601-0.583,2.586-0.002,2.586,1.455v0.027
					c0,1.046-0.47,1.8-1.03,2.376c0.907,0.08,1.467,0.499,1.467,1.744v0.026C240.283,339.307,239.118,340.579,237.35,341.224z
					 M238.133,334.408c0-0.609-0.403-0.807-1.131-0.542l-1.702,0.62v1.961l1.589-0.579c0.761-0.277,1.243-0.744,1.243-1.433V334.408
					z M238.57,337.958c0-0.623-0.391-0.864-1.276-0.542l-1.993,0.726v2.04l2.049-0.747c0.761-0.277,1.22-0.762,1.22-1.451V337.958z"
					/>
				<path d="M242.356,339.4v-9.272l5.91-2.154v1.815l-4.197,1.53v1.881l3.694-1.346v1.815l-3.694,1.346v1.947l4.253-1.55v1.815
					L242.356,339.4z"/>
				<path d="M252.253,328.375v1.974l3.739-1.362v1.854l-3.739,1.362v3.59l-1.724,0.628v-9.272l5.966-2.174v1.854L252.253,328.375z"
					/>
				<path d="M262.001,332.401c-2.418,0.881-4.153-0.62-4.153-3.256v-0.026c0-2.636,1.758-5.435,4.176-6.317
					c2.418-0.881,4.153,0.62,4.153,3.256v0.026C266.176,328.721,264.419,331.52,262.001,332.401z M264.374,326.741
					c0-1.59-0.985-2.555-2.373-2.049c-1.388,0.506-2.351,2.155-2.351,3.745v0.026c0,1.589,0.985,2.555,2.373,2.049
					s2.351-2.155,2.351-3.745V326.741z"/>
				<path d="M273.021,328.226l-1.679-2.355l-1.355,0.493v2.967l-1.724,0.628v-9.272l3.582-1.305
					c1.847-0.673,2.955,0.075,2.955,1.983v0.026c0,1.497-0.683,2.686-1.679,3.486l1.914,2.614L273.021,328.226z M273.055,322.107
					c0-0.874-0.515-1.137-1.354-0.831l-1.713,0.624v2.663l1.746-0.636c0.84-0.306,1.321-1.011,1.321-1.793V322.107z"/>
				<path d="M276.964,326.79v-9.272l5.91-2.154v1.815l-4.197,1.53v1.881l3.694-1.346v1.815l-3.694,1.346v1.947l4.253-1.55v1.815
					L276.964,326.79z"/>
				<path d="M292.486,313.742v7.392l-1.724,0.628v-7.392l-2.384,0.869v-1.881l6.492-2.365v1.881L292.486,313.742z"/>
				<path d="M301.524,317.84v-3.722l-3.179,1.159v3.722l-1.724,0.628v-9.272l1.724-0.628v3.669l3.179-1.159v-3.669l1.724-0.628
					v9.272L301.524,317.84z"/>
				<path d="M305.754,316.3v-9.272l5.91-2.154v1.815l-4.197,1.53v1.881l3.694-1.346v1.815l-3.694,1.346v1.947l4.253-1.55v1.815
					L305.754,316.3z"/>
				<path d="M321.959,310.554c-2.306,0.84-4.019-0.642-4.019-3.304v-0.026c0-2.636,1.679-5.407,4.086-6.284
					c1.478-0.538,2.362-0.278,3.089,0.304l-1.097,1.897c-0.605-0.429-1.22-0.602-2.003-0.316c-1.321,0.481-2.272,2.126-2.272,3.716
					v0.026c0,1.589,0.929,2.576,2.272,2.086c0.895-0.326,1.444-0.95,2.059-1.836l1.097,0.911
					C324.366,309.041,323.47,310.003,321.959,310.554z"/>
				<path d="M332.89,306.412l-0.716-1.818l-3.314,1.208l-0.717,2.341l-1.757,0.64l3.358-10.563l1.59-0.579l3.358,8.115
					L332.89,306.412z M330.516,300.389l-1.041,3.386l2.082-0.759L330.516,300.389z"/>
				<path d="M336.393,305.136v-9.272l1.724-0.628v7.418l3.907-1.423v1.854L336.393,305.136z"/>
				<path d="M343.763,302.45v-9.272l1.724-0.628v7.418l3.907-1.423v1.854L343.763,302.45z"/>
			</g>
		</g>
		<g>
			<g>
				<path d="M357.334,5.924v6.98l-1.627,0.592v-6.98l-2.25,0.821V5.559l6.128-2.233v1.777L357.334,5.924z"/>
				<path d="M367.111,9.346V3.629l-2.081,4.499l-0.043,0.016l-2.06-2.953v5.679l-1.596,0.582V2.695l1.754-0.639l1.944,2.995
					l1.944-4.412L368.728,0v8.757L367.111,9.346z"/>
			</g>
		</g>
	</g>
	<g>
		<path d="M387.994,40.44l-19.266,7.069v-9.878l-19.334,21.567V7.051L38.607,120.292v46.202L0,180.561l0.006,178.05l19.266-7.069
			v9.878l19.334-21.567V392l310.787-113.241v-46.202L388,218.49L387.994,40.44z M48.113,126.956L339.887,20.643v82.453
			L48.113,209.409V126.956z M339.887,272.096L48.113,378.409v-82.453l291.774-106.313V272.096z M378.494,211.826l-29.1,10.603
			v-46.379L38.607,289.292v49.53l-19.334-7.114v9.708l-9.766,3.607V187.225l29.1-10.603V223L349.393,109.76V60.23l19.334,7.114
			v-9.708l9.766-3.607V211.826z"/>
		<path class="st0" d="M48.113,126.956L339.887,20.643v82.453L48.113,209.409V126.956z M339.887,272.096L48.113,378.409v-82.453
			l291.774-106.313V272.096z"/>
		<g>
			<path d="M100.956,217.167l-5.766,2.101l-11.836,36.877l6.446-2.35l0.078-0.028l2.498-8.083l11.322-4.126l2.497,6.262l6.6-2.404
				l-11.776-28.103L100.956,217.167z M101.426,235.818l-6.782,2.471l3.391-10.925L101.426,235.818z"/>
			<polygon points="136.129,223.936 123.546,209.165 117.787,211.264 117.787,243.598 124.051,241.315 124.051,221.321 
				137.062,236.574 142.393,234.631 142.393,202.298 136.129,204.58 			"/>
			<polygon points="148.312,200.141 148.312,206.983 156.624,203.954 156.624,229.447 162.967,227.135 162.967,201.642 
				171.279,198.614 171.279,191.771 148.421,200.101 			"/>
			<polygon points="183.502,206.678 196.272,202.024 196.381,201.985 196.381,195.372 183.502,200.064 183.502,193.931 
				198.027,188.639 198.136,188.599 198.136,181.986 177.309,189.576 177.2,189.616 177.2,221.95 198.223,214.289 198.332,214.249 
				198.332,207.636 183.502,213.04 			"/>
			<path d="M223.991,189.561c-1.356-1.28-3.564-1.756-7.162-1.542c-2.967,0.192-4.599,0.173-5.274-0.46
				c-0.306-0.287-0.443-0.728-0.443-1.429v-0.091c0-1.621,1.336-3.156,3.403-3.91c2.125-0.774,4.408-0.591,6.978,0.56l0.147,0.066
				l3.261-6.722l-0.134-0.077c-2.916-1.678-6.377-1.806-10.287-0.382c-5.694,2.074-9.67,7.536-9.67,13.28v0.092
				c0,2.487,0.549,4.211,1.677,5.27c1.55,1.454,4.04,1.603,7.553,1.375c2.864-0.184,4.281-0.025,4.892,0.548
				c0.3,0.282,0.434,0.697,0.434,1.345v0.092c0,1.815-1.433,3.421-3.833,4.296c-2.771,1.009-5.317,0.725-8.014-0.899l-0.147-0.087
				l-3.711,6.555l0.127,0.086c1.864,1.27,4.054,1.909,6.422,1.909c1.701,0,3.493-0.33,5.32-0.996
				c6.254-2.278,10.138-7.537,10.138-13.724v-0.091C225.669,192.283,225.12,190.626,223.991,189.561z"/>
			<path d="M268.129,160.898c-2.672-1.876-6.371-2.096-10.415-0.62l-10.762,3.922v32.334l10.876-3.963
				c8.476-3.087,14.627-12.103,14.627-21.436v-0.091C272.455,166.457,270.918,162.853,268.129,160.898z M265.839,173.424v0.091
				c0,5.641-3.266,10.622-8.126,12.393l-4.42,1.61v-18.925l4.535-1.652c2.199-0.801,4.117-0.697,5.543,0.302
				C264.962,168.36,265.839,170.554,265.839,173.424z"/>
			<polygon points="285.872,175.739 285.872,169.378 298.641,164.724 298.75,164.684 298.75,158.072 285.872,162.764 
				285.872,156.631 300.397,151.339 300.506,151.299 300.506,144.686 279.678,152.276 279.569,152.316 279.569,184.649 
				300.593,176.988 300.702,176.948 300.702,170.336 			"/>
		</g>
		<g>
			<g>
				<g>
					<path d="M78.583,167.774v-21.974c0-10.888,5.203-21.692,17.095-26.025c11.706-4.266,16.909,2.549,17.001,13.205v0.792
						l-9.197,3.351v-0.792c-0.093-5.608-2.881-8.353-7.804-6.56c-5.018,1.829-7.898,6.738-7.898,12.578v22.172
						c0,5.839,2.88,8.749,7.898,6.921c4.923-1.795,7.711-6.572,7.804-12.247v-0.792l9.197-3.351v0.792
						c-0.093,10.723-5.295,21.33-17.001,25.595C83.786,185.774,78.583,178.662,78.583,167.774z"/>
					<path d="M119.553,152.845v-40.78l9.198-3.351v40.78c0,5.84,2.88,8.849,7.897,7.021c5.018-1.828,7.898-6.935,7.898-12.775
						v-40.78l9.198-3.351v40.78c0,10.888-5.204,21.791-17.096,26.123C124.757,170.845,119.553,163.733,119.553,152.845z"/>
					<path d="M164.592,95.655l9.951-3.625v60.18l-9.951,3.625V95.655z"/>
					<path d="M186.229,87.771l15.887-5.788c11.891-4.334,17.096,2.876,17.096,13.962v19.896c0,11.086-5.204,21.989-17.096,26.322
						l-15.887,5.788V87.771z M210.014,98.901c0-5.741-3.066-8.681-7.897-6.921l-6.69,2.438v40.186l6.69-2.438
						c4.832-1.76,7.897-6.837,7.897-12.775V98.901z"/>
					<path d="M251.728,63.906l12.264,55.712l-9.477,3.452l-2.044-9.647l-15.608,5.687l-2.044,11.137l-9.477,3.454l12.264-64.649
						L251.728,63.906z M238.814,108.402l11.705-4.266l-5.574-26.475l-0.557,0.203L238.814,108.402z"/>
					<path d="M290.553,92.42c-1.023,0.571-2.044,0.942-3.066,1.314l-5.947,2.167v17.322l-9.106,3.317V56.36l15.053-5.484
						c12.078-4.401,17.095,2.877,17.095,13.963v2.573c0,6.731-1.859,13.446-6.133,18.567l7.247,18.442l-9.198,3.351L290.553,92.42z
						 M281.54,86.003l5.667-2.065c5.019-1.828,8.084-6.805,8.084-12.744V67.73c0-5.741-3.066-8.682-8.084-6.853l-5.667,2.065V86.003
						z"/>
				</g>
			</g>
			<g>
				<g>
					<g>
						<path d="M60.003,343.155v-21.13c0-10.47,4.751-20.766,15.615-24.725c10.693-3.896,15.446,2.747,15.53,12.996v0.761l-8.4,3.061
							v-0.762c-0.085-5.393-2.631-8.082-7.13-6.444c-4.582,1.67-7.214,6.34-7.214,11.956v21.319c0,5.615,2.631,8.463,7.214,6.794
							c4.499-1.639,7.045-6.183,7.13-11.64v-0.761l8.4-3.061v0.762c-0.084,10.31-4.837,20.417-15.53,24.313
							C64.755,360.553,60.003,353.624,60.003,343.155z"/>
						<path d="M118.127,318.074l-12.305,4.483v22.557l-8.404,3.061v-57.867l8.404-3.061v25.793l12.305-4.484v-25.793l8.402-3.061
							v57.867l-8.402,3.061V318.074z"/>
						<path d="M156.595,268.746l11.204,53.786l-8.656,3.153l-1.868-9.313l-14.258,5.195l-1.866,10.673l-8.656,3.154l11.202-61.949
							L156.595,268.746z M144.799,311.306l10.695-3.897l-5.093-25.555l-0.509,0.186L144.799,311.306z"/>
						<path d="M243.82,236.964l11.204,53.785l-8.656,3.153l-1.868-9.313l-14.258,5.195l-1.866,10.673l-8.656,3.154l11.202-61.948
							L243.82,236.964z M232.024,279.523l10.695-3.896l-5.093-25.556l-0.509,0.186L232.024,279.523z"/>
						<path d="M261.04,230.691l14.512-5.288c10.864-3.958,15.615,3.067,15.615,13.726v19.13c0,10.66-4.751,21.053-15.615,25.011
							l-14.512,5.287V230.691z M282.766,241.809c0-5.52-2.8-8.402-7.214-6.794l-6.111,2.226v38.642l6.111-2.227
							c4.414-1.608,7.214-6.435,7.214-12.145V241.809z"/>
						<path d="M319.171,209.509l11.204,53.785l-8.656,3.154l-1.868-9.313l-14.258,5.195l-1.866,10.673l-8.658,3.154l11.204-61.949
							L319.171,209.509z M307.375,252.068l10.693-3.897l-5.091-25.555l-0.509,0.186L307.375,252.068z"/>
					</g>
				</g>
				<path d="M190.357,301.537l-6.841-20.354l-1.303-4.314v40.407l-8.403,3.062v-57.866l9.851-3.59l9.223,26.798l9.953-33.785
					l10.865-3.958v57.866l-8.403,3.062v-42.358l-1.79,8.878l-6.104,23.602L190.357,301.537z"/>
			</g>
		</g>
	</g>
</g>
</svg>
