<?xml version="1.0" encoding="utf-8"?>
<!-- Generator: Adobe Illustrator 24.0.3, SVG Export Plug-In . SVG Version: 6.00 Build 0)  -->
<svg version="1.1" id="Layer_1" xmlns="http://www.w3.org/2000/svg" xmlns:xlink="http://www.w3.org/1999/xlink" x="0px" y="0px"
	 viewBox="0 0 388 392" style="enable-background:new 0 0 388 392;" xml:space="preserve">
<style type="text/css">
	.st0{fill:#FFFFFF;}
</style>
<g>
	<g>
		<g>
			<g>
				<g>
					<path d="M357.3,5.9v7l-1.6,0.6v-7l-2.2,0.8V5.6l6.1-2.2v1.8L357.3,5.9z"/>
					<path d="M367.1,9.3V3.6L365,8.1l0,0l-2.1-3v5.7l-1.6,0.6V2.7l1.8-0.6l1.9,3l1.9-4.4l1.8-0.6v8.8L367.1,9.3z"/>
				</g>
			</g>
		</g>
	</g>
	<g>
		<path d="M388,40.4l-19.3,7.1v-9.9l-19.3,21.6V7L38.6,120.3v46.2L0,180.5l0,178.1l19.3-7.1v9.9l19.3-21.6V392l310.8-113.3v-46.2
			l38.6-14.1L388,40.4z M378.5,211.8l-29.1,10.6V176L38.6,289.3v49.5l-19.3-7.1v9.7L9.5,345V187.2l29.1-10.6V223l310.8-113.3V60.2
			l19.3,7.1v-9.7l9.8-3.6V211.8z"/>
		<path class="st0" d="M48.1,126.9L339.9,20.6v82.5L48.1,209.4V126.9z M339.9,272.1L48.1,378.4v-82.5l291.8-106.3V272.1z"/>
		<g>
			<g>
				<g>
					<path d="M198,355.7c-2.3,0.8-4-0.6-4-3.3v0c0-2.6,1.7-5.4,4.1-6.3c1.5-0.5,2.4-0.3,3.1,0.3l-1.1,1.9c-0.6-0.4-1.2-0.6-2-0.3
						c-1.3,0.5-2.3,2.1-2.3,3.7v0c0,1.6,0.9,2.6,2.3,2.1c0.9-0.3,1.4-1,2.1-1.8l1.1,0.9C200.4,354.2,199.5,355.2,198,355.7z"/>
					<path d="M208.9,351.6l-0.7-1.8l-3.3,1.2l-0.7,2.3l-1.8,0.6l3.4-10.6l1.6-0.6l3.4,8.1L208.9,351.6z M206.5,345.6l-1,3.4l2.1-0.8
						L206.5,345.6z"/>
					<path d="M217.1,348.6l-1.7-2.4l-1.4,0.5v3l-1.7,0.6V341l3.6-1.3c1.8-0.7,3,0.1,3,2v0c0,1.5-0.7,2.7-1.7,3.5l1.9,2.6
						L217.1,348.6z M217.2,342.5c0-0.9-0.5-1.1-1.4-0.8l-1.7,0.6v2.7l1.7-0.6C216.7,344,217.2,343.3,217.2,342.5L217.2,342.5z"/>
					<path d="M221.1,347.1v-9.3l5.9-2.2v1.8l-4.2,1.5v1.9l3.7-1.3v1.8l-3.7,1.3v1.9l4.3-1.6v1.8L221.1,347.1z"/>
					<path d="M237.3,341.2l-3.7,1.4v-9.3l3.6-1.3c1.6-0.6,2.6,0,2.6,1.5v0c0,1-0.5,1.8-1,2.4c0.9,0.1,1.5,0.5,1.5,1.7v0
						C240.3,339.3,239.1,340.6,237.3,341.2z M238.1,334.4c0-0.6-0.4-0.8-1.1-0.5l-1.7,0.6v2l1.6-0.6
						C237.7,335.6,238.1,335.1,238.1,334.4L238.1,334.4z M238.6,338c0-0.6-0.4-0.9-1.3-0.5l-2,0.7v2l2-0.7
						C238.1,339.2,238.6,338.7,238.6,338L238.6,338z"/>
					<path d="M242.4,339.4v-9.3l5.9-2.2v1.8l-4.2,1.5v1.9l3.7-1.3v1.8l-3.7,1.3v1.9l4.3-1.6v1.8L242.4,339.4z"/>
					<path d="M252.3,328.4v2l3.7-1.4v1.9l-3.7,1.4v3.6l-1.7,0.6v-9.3l6-2.2v1.9L252.3,328.4z"/>
					<path d="M262,332.4c-2.4,0.9-4.2-0.6-4.2-3.3v0c0-2.6,1.8-5.4,4.2-6.3c2.4-0.9,4.2,0.6,4.2,3.3v0
						C266.2,328.7,264.4,331.5,262,332.4z M264.4,326.7c0-1.6-1-2.6-2.4-2c-1.4,0.5-2.4,2.2-2.4,3.7v0c0,1.6,1,2.6,2.4,2
						C263.4,330,264.4,328.4,264.4,326.7L264.4,326.7z"/>
					<path d="M273,328.2l-1.7-2.4l-1.4,0.5v3l-1.7,0.6v-9.3l3.6-1.3c1.8-0.7,3,0.1,3,2v0c0,1.5-0.7,2.7-1.7,3.5l1.9,2.6L273,328.2z
						 M273.1,322.1c0-0.9-0.5-1.1-1.4-0.8l-1.7,0.6v2.7l1.7-0.6C272.6,323.6,273.1,322.9,273.1,322.1L273.1,322.1z"/>
					<path d="M277,326.8v-9.3l5.9-2.2v1.8l-4.2,1.5v1.9l3.7-1.3v1.8l-3.7,1.3v1.9l4.3-1.6v1.8L277,326.8z"/>
					<path d="M292.5,313.7v7.4l-1.7,0.6v-7.4l-2.4,0.9v-1.9l6.5-2.4v1.9L292.5,313.7z"/>
					<path d="M301.5,317.8v-3.7l-3.2,1.2v3.7l-1.7,0.6v-9.3l1.7-0.6v3.7l3.2-1.2v-3.7l1.7-0.6v9.3L301.5,317.8z"/>
					<path d="M305.8,316.3V307l5.9-2.2v1.8l-4.2,1.5v1.9l3.7-1.3v1.8l-3.7,1.3v1.9l4.3-1.6v1.8L305.8,316.3z"/>
					<path d="M322,310.5c-2.3,0.8-4-0.6-4-3.3v0c0-2.6,1.7-5.4,4.1-6.3c1.5-0.5,2.4-0.3,3.1,0.3l-1.1,1.9c-0.6-0.4-1.2-0.6-2-0.3
						c-1.3,0.5-2.3,2.1-2.3,3.7v0c0,1.6,0.9,2.6,2.3,2.1c0.9-0.3,1.4-1,2.1-1.8l1.1,0.9C324.4,309,323.5,310,322,310.5z"/>
					<path d="M332.9,306.4l-0.7-1.8l-3.3,1.2l-0.7,2.3l-1.8,0.6l3.4-10.6l1.6-0.6l3.4,8.1L332.9,306.4z M330.5,300.4l-1,3.4l2.1-0.8
						L330.5,300.4z"/>
					<path d="M336.4,305.1v-9.3l1.7-0.6v7.4l3.9-1.4v1.9L336.4,305.1z"/>
					<path d="M343.8,302.4v-9.3l1.7-0.6v7.4l3.9-1.4v1.9L343.8,302.4z"/>
				</g>
			</g>
		</g>
		<g>
			<path d="M101,217.1l-5.8,2.1l-11.8,36.9l6.4-2.3l0.1,0l2.5-8.1l11.3-4.1l2.5,6.3l6.6-2.4L101,217.3L101,217.1z M101.4,235.8
				l-6.8,2.5l3.4-10.9L101.4,235.8z"/>
			<path d="M293.7,146.9l-5.8,2.1l-11.8,36.9l6.4-2.3l0.1,0l2.5-8.1l11.3-4.1l2.5,6.3l6.6-2.4L293.8,147L293.7,146.9z M294.2,165.5
				l-6.8,2.5l3.4-10.9L294.2,165.5z"/>
			<polygon points="136.1,223.9 123.5,209.1 117.8,211.2 117.8,243.6 124.1,241.3 124.1,221.3 137.1,236.6 142.4,234.6 142.4,202.3 
				136.1,204.6 			"/>
			<polygon points="148.3,200.1 148.3,207 156.6,203.9 156.6,229.4 163,227.1 163,201.6 171.3,198.6 171.3,191.7 148.4,200.1 			"/>
			<polygon points="183.5,206.7 196.3,202 196.4,202 196.4,195.3 183.5,200 183.5,193.9 198,188.6 198.1,188.6 198.1,182 
				177.3,189.6 177.2,189.6 177.2,221.9 198.2,214.3 198.3,214.2 198.3,207.6 183.5,213 			"/>
			<path d="M224,189.5c-1.4-1.3-3.6-1.8-7.2-1.5c-3,0.2-4.6,0.2-5.3-0.5c-0.3-0.3-0.4-0.7-0.4-1.4V186c0-1.6,1.3-3.2,3.4-3.9
				c2.1-0.8,4.4-0.6,7,0.6l0.1,0.1l3.3-6.7l-0.1-0.1c-2.9-1.7-6.4-1.8-10.3-0.4c-5.7,2.1-9.7,7.5-9.7,13.3v0.1
				c0,2.5,0.5,4.2,1.7,5.3c1.6,1.5,4,1.6,7.6,1.4c2.9-0.2,4.3,0,4.9,0.5c0.3,0.3,0.4,0.7,0.4,1.3v0.1c0,1.8-1.4,3.4-3.8,4.3
				c-2.8,1-5.3,0.7-8-0.9l-0.1-0.1l-3.7,6.6l0.1,0.1c1.9,1.3,4.1,1.9,6.4,1.9c1.7,0,3.5-0.3,5.3-1c6.3-2.3,10.1-7.5,10.1-13.7v-0.1
				C225.7,192.3,225.1,190.6,224,189.5z"/>
			<path d="M269.1,160.5c-2.7-1.9-6.4-2.1-10.4-0.6l-10.8,3.9v32.3l10.9-4c8.5-3.1,14.6-12.1,14.6-21.4v-0.1
				C273.5,166,271.9,162.4,269.1,160.5z M266.8,173L266.8,173c0,5.7-3.3,10.7-8.1,12.5l-4.4,1.6v-18.9l4.5-1.7
				c2.2-0.8,4.1-0.7,5.5,0.3C266,167.9,266.8,170.1,266.8,173z"/>
		</g>
		<g>
			<path d="M60,343.2V322c0-10.5,4.8-20.8,15.6-24.7c10.7-3.9,15.4,2.7,15.5,13v0.8l-8.4,3.1v-0.8c-0.1-5.4-2.6-8.1-7.1-6.4
				c-4.6,1.7-7.2,6.3-7.2,12v21.3c0,5.6,2.6,8.5,7.2,6.8c4.5-1.6,7-6.2,7.1-11.6v-0.8l8.4-3.1v0.8c-0.1,10.3-4.8,20.4-15.5,24.3
				C64.8,360.6,60,353.6,60,343.2z"/>
			<path d="M118.1,318.1l-12.3,4.5v22.6l-8.4,3.1v-57.9l8.4-3.1V313l12.3-4.5v-25.8l8.4-3.1v57.9l-8.4,3.1V318.1z"/>
			<path d="M156.6,268.7l11.2,53.8l-8.7,3.2l-1.9-9.3l-14.3,5.2l-1.9,10.7l-8.7,3.2l11.2-62L156.6,268.7z M144.8,311.3l10.7-3.9
				l-5.1-25.6l-0.5,0.2L144.8,311.3z"/>
			<path d="M243.8,236.9l11.2,53.8l-8.7,3.2l-1.9-9.3l-14.3,5.2l-1.9,10.7l-8.7,3.2l11.2-62L243.8,236.9z M232,279.5l10.7-3.9
				l-5.1-25.6l-0.5,0.2L232,279.5z"/>
			<path d="M261,230.7l14.5-5.3c10.9-4,15.6,3.1,15.6,13.7v19.1c0,10.7-4.8,21.1-15.6,25l-14.5,5.3V230.7z M282.8,241.8
				c0-5.5-2.8-8.4-7.2-6.8l-6.1,2.2v38.6l6.1-2.2c4.4-1.6,7.2-6.4,7.2-12.1V241.8z"/>
			<path d="M319.2,209.5l11.2,53.8l-8.7,3.2l-1.9-9.3l-14.3,5.2l-1.9,10.7l-8.7,3.2l11.2-62L319.2,209.5z M307.4,252.1l10.7-3.9
				l-5.1-25.6l-0.5,0.2L307.4,252.1z"/>
			<path d="M190.4,301.5l-6.8-20.4l-1.3-4.3v40.4l-8.4,3.1v-57.9l9.9-3.6l9.2,26.8l10-33.8l10.9-4v57.9l-8.4,3.1v-42.4l-1.8,8.9
				l-6.1,23.6L190.4,301.5z"/>
		</g>
		<g>
			<g>
				<g>
					<g>
						<g>
							<path d="M60.1,174.1v-21.3c0-10.6,5-21,16.6-25.2C88,123.4,93,130,93.1,140.4v0.8l-8.9,3.3v-0.8c-0.1-5.4-2.8-8.1-7.6-6.4
								c-4.9,1.8-7.7,6.5-7.7,12.2v21.5c0,5.7,2.8,8.5,7.7,6.7c4.8-1.7,7.5-6.4,7.6-11.9V165l8.9-3.3v0.8
								c-0.1,10.4-5.1,20.7-16.5,24.8C65.1,191.6,60.1,184.7,60.1,174.1z"/>
						</g>
						<g>
							<path d="M99.8,159.6v-39.5l8.9-3.3v39.5c0,5.7,2.8,8.6,7.7,6.8c4.9-1.8,7.7-6.7,7.7-12.4v-39.5l8.9-3.3v39.5
								c0,10.6-5,21.1-16.6,25.3S99.8,170.2,99.8,159.6z"/>
						</g>
						<g>
							<path d="M143.1,104.3l8.9-3.2v58.4l-8.9,3.3V104.3z"/>
						</g>
						<g>
							<path d="M162.5,97.2l15.4-5.6c11.5-4.2,16.6,2.8,16.6,13.5v19.3c0,10.8-5,21.3-16.6,25.5l-15.4,5.6V97.2z M185.6,108
								c0-5.6-3-8.4-7.7-6.7l-6.5,2.4v39l6.5-2.4c4.7-1.7,7.7-6.6,7.7-12.4V108z"/>
						</g>
						<g>
							<path d="M229.8,121.5v9.5l-25.8,9.4V82.1l25.8-9.4v9.5L213,88.3v15.5l13.7-5v9.5l-13.7,5v14.4L229.8,121.5z"/>
						</g>
						<g>
							<path d="M234.3,95.9l20.9-7.6v9.5l-20.9,7.6V95.9z"/>
						</g>
						<g>
							<path d="M282.3,68.8c-0.1-3.6-2.3-5.7-6.5-4.2c-3.7,1.3-6.2,4.3-6.2,9.3c0,11.6,22.6-4.6,22.6,17.1c0,0.8-0.2,17.8-15,23.2
								c-14.2,5.2-16.8-4.3-17.2-9.4v-1.2l8.6-3.2c1.1,6.7,6.9,4.6,8,4.2c0.5-0.2,6.6-2.8,6.6-10.2c0-11.8-22.6,3.3-22.6-17.6
								c0-3.6,0.8-16.8,15.2-22.1c14.6-5.3,15.3,7.5,15.3,10.6v1.2l-8.9,3.2V68.8z"/>
						</g>
						<g>
							<path d="M326.6,86.3v9.5l-25.8,9.4V46.8l25.8-9.4v9.5l-16.8,6.1v15.5l13.7-5V73l-13.7,5v14.4L326.6,86.3z"/>
						</g>
					</g>
				</g>
			</g>
		</g>
	</g>
</g>
</svg>
