<?xml version="1.0" encoding="utf-8"?>
<!-- Generator: Adobe Illustrator 24.0.1, SVG Export Plug-In . SVG Version: 6.00 Build 0)  -->
<svg version="1.1" id="presentation" xmlns="http://www.w3.org/2000/svg" xmlns:xlink="http://www.w3.org/1999/xlink" x="0px"
	 y="0px" viewBox="0 0 348.981 436.016" style="enable-background:new 0 0 348.981 436.016;" xml:space="preserve">
<style type="text/css">
	.st0{fill:#FFFFFF;}
</style>
<g>
	<path d="M348.973,54.663l-26.071,9.555V50.865l-26.163,29.152V9.531L52.242,98.521v62.452L0,179.987l0.008,210.898l26.071-9.555
		v13.353l26.163-29.152v70.486l244.497-88.99v-62.452l52.242-19.014L348.973,54.663z M65.106,107.528l218.769-79.625v111.452
		L65.106,218.98V107.528z M283.875,338.019L65.106,417.645V306.192l218.769-79.625V338.019z M336.117,256.553l-39.378,14.332v-62.69
		l-244.497,88.99v66.95l-26.163-9.616v13.122l-13.215,4.876V188.994l39.378-14.332v62.69l244.497-88.99V81.413l26.163,9.616V77.908
		l13.215-4.876V256.553z"/>
	<path class="st0" d="M65.106,107.528l218.769-79.625v111.452L65.106,218.98V107.528z M283.875,338.019L65.106,417.645V306.192
		l218.769-79.625V338.019z"/>
	<g>
		<g>
			<g>
				<path d="M71.478,253.541c0-4.362-2.951-6.105-7.745-4.359l-10.898,3.965v27.765l11.167-4.065
					c5.297-1.928,8.783-5.736,8.783-10.813v-0.079c0-3.729-1.675-4.983-4.392-5.223c1.676-1.721,3.086-3.979,3.086-7.112V253.541z
					 M57.865,256.673l5.096-1.856c2.18-0.792,3.387-0.201,3.387,1.624v0.079c0,2.062-1.442,3.46-3.723,4.291l-4.759,1.731V256.673z
					 M67.655,267.149c0,2.062-1.374,3.515-3.654,4.345l-6.136,2.234v-6.109l5.968-2.171c2.648-0.964,3.823-0.242,3.823,1.623
					V267.149z"/>
				<polygon points="97.602,242.287 97.602,236.854 79.899,243.298 79.899,271.061 97.77,264.557 97.77,259.124 85.028,263.761 
					85.028,257.93 96.093,253.902 96.093,248.469 85.028,252.497 85.028,246.864 				"/>
				<polygon points="123.426,233.008 123.426,227.455 105.555,233.96 105.555,261.723 110.719,259.843 110.719,249.095 
					121.917,245.019 121.917,239.466 110.719,243.542 110.719,237.632 				"/>
				<path d="M140.699,220.692c-7.242,2.637-12.506,11.017-12.506,18.909v0.08c0,7.893,5.197,12.387,12.438,9.751
					c7.243-2.636,12.506-11.018,12.506-18.911v-0.079C153.138,222.549,147.941,218.056,140.699,220.692z M147.741,232.487v0.079
					c0,4.759-2.884,9.696-7.042,11.21c-4.157,1.513-7.108-1.379-7.108-6.139v-0.08c0-4.759,2.883-9.696,7.041-11.208
					C144.789,224.835,147.741,227.727,147.741,232.487z"/>
				<path d="M179.333,216.348v-0.08c0-5.711-3.32-7.952-8.853-5.939l-10.728,3.905v27.762l5.163-1.879v-8.884l4.058-1.477
					l5.029,7.053l6.036-2.196l-5.735-7.828C177.287,224.391,179.333,220.83,179.333,216.348z M174.101,218.569
					c0,2.341-1.442,4.452-3.955,5.367l-5.232,1.904v-7.973l5.131-1.866c2.515-0.916,4.056-0.129,4.056,2.49V218.569z"/>
				<polygon points="204.385,203.421 204.385,197.989 186.681,204.432 186.681,232.196 204.552,225.692 204.552,220.258 
					191.811,224.895 191.811,219.064 202.876,215.037 202.876,209.604 191.811,213.631 191.811,207.999 				"/>
				<polygon points="236.549,214.046 236.549,191.914 243.689,189.315 243.689,183.684 224.242,190.761 224.242,196.393 
					231.385,193.794 231.385,215.926 				"/>
				<polygon points="270.016,201.865 270.016,174.101 264.853,175.98 264.853,186.967 255.33,190.432 255.33,179.447 
					250.168,181.325 250.168,209.089 255.33,207.209 255.33,196.065 264.853,192.598 264.853,203.744 				"/>
				<polygon points="284.316,191.227 284.316,185.395 295.382,181.368 295.382,175.935 284.316,179.963 284.316,174.33 
					296.89,169.753 296.89,164.32 279.187,170.763 279.187,198.527 297.058,192.022 297.058,186.59 				"/>
				<path d="M101.071,191.286c14.86-5.409,21.464-19.564,21.582-34.031v-1.068l-11.676,4.25v1.068
					c-0.118,7.656-3.656,14.018-9.906,16.292c-6.37,2.319-10.026-1.692-10.026-9.572v-29.916c0-7.879,3.656-14.419,10.026-16.738
					c6.25-2.275,9.788,1.513,9.906,9.082v1.07l11.676-4.251v-1.067c-0.118-14.382-6.722-23.731-21.582-18.322
					c-15.097,5.495-21.701,19.919-21.701,34.608v29.65C79.369,187.032,85.973,196.781,101.071,191.286z"/>
				<path d="M141.71,161.804l19.813-7.212l2.596,13.077l12.029-4.377l-15.567-75.535l-17.929,6.525l-15.568,86.867l12.03-4.378
					L141.71,161.804z M151.263,106.375l0.708-0.257l7.076,35.887l-14.86,5.409L151.263,106.375z"/>
				<path d="M196.067,132.672l7.548-2.748c1.298-0.472,2.594-0.944,3.892-1.684l7.548,20.891l11.676-4.25l-9.2-25.098
					c5.426-6.782,7.785-15.787,7.785-24.869v-3.472c0-14.958-6.369-24.926-21.701-19.346l-19.106,6.954v81.201l11.558-4.207V132.672
					z M196.067,88.198l7.194-2.618c6.368-2.318,10.26,1.741,10.26,9.486v4.675c0,8.013-3.892,14.638-10.26,16.957l-7.194,2.618
					V88.198z"/>
				<polygon points="269.176,116.212 247.12,124.24 247.12,104.206 265.048,97.682 265.048,84.46 247.12,90.985 247.12,69.483 
					269.176,61.455 269.176,48.234 235.444,60.511 235.444,141.712 269.176,129.433 				"/>
				<path d="M101.071,306.952c-15.097,5.495-21.701,19.92-21.701,34.609v29.65c0,14.692,6.604,24.441,21.701,18.945
					c14.86-5.409,21.464-19.564,21.582-34.031v-1.068l-11.676,4.25v1.068c-0.118,7.656-3.656,14.018-9.906,16.292
					c-6.37,2.319-10.026-1.692-10.026-9.572v-29.916c0-7.879,3.656-14.419,10.026-16.738c6.25-2.275,9.788,1.513,9.906,9.082v1.07
					l11.676-4.251v-1.067C122.535,310.893,115.931,301.543,101.071,306.952z"/>
				<path d="M145.719,292.037l-15.568,86.867l12.03-4.379l2.595-14.968l19.814-7.212l2.595,13.08l12.029-4.379l-15.567-75.533
					L145.719,292.037z M147.253,345.168l7.076-41.038l0.708-0.259l7.076,35.888L147.253,345.168z"/>
				<polygon points="202.317,271.438 190.641,275.688 190.641,356.888 224.372,344.61 224.372,331.389 202.317,339.416 				"/>
				<polygon points="247.569,254.967 235.893,259.218 235.893,340.418 269.624,328.14 269.624,314.919 247.569,322.947 				"/>
			</g>
		</g>
	</g>
	<g>
		<g>
			<path d="M307.484,8.007v9.436l-2.202,0.8V8.808l-3.045,1.109V7.515l8.292-3.018v2.401L307.484,8.007z"/>
			<path d="M320.714,12.633V4.905l-2.816,6.082l-0.058,0.021l-2.787-3.992v7.677l-2.159,0.786V3.643l2.374-0.864l2.631,4.048
				l2.631-5.964L322.902,0v11.837L320.714,12.633z"/>
		</g>
	</g>
</g>
</svg>
