<?xml version="1.0" encoding="utf-8"?>
<!-- Generator: Adobe Illustrator 24.0.1, SVG Export Plug-In . SVG Version: 6.00 Build 0)  -->
<svg version="1.1" id="Layer_1" xmlns="http://www.w3.org/2000/svg" xmlns:xlink="http://www.w3.org/1999/xlink" x="0px" y="0px"
	 viewBox="0 0 388 392" style="enable-background:new 0 0 388 392;" xml:space="preserve">
<style type="text/css">
	.st0{fill:#FFFFFF;}
</style>
<g>
	<path d="M387.994,40.44l-19.266,7.069v-9.878l-19.334,21.567V7.051L38.607,120.292v46.202L0,180.561l0.006,178.05l19.266-7.069
		v9.878l19.334-21.567V392l310.787-113.241v-46.202L388,218.49L387.994,40.44z M378.494,211.826l-29.1,10.603v-46.379
		L38.607,289.292v49.53l-19.334-7.114v9.708l-9.766,3.607V187.225l29.1-10.603V223L349.393,109.76V60.23l19.334,7.114v-9.708
		l9.766-3.607V211.826z"/>
	<path class="st0" d="M48.113,126.956L339.887,20.643v82.453L48.113,209.409V126.956z M339.887,272.096L48.113,378.409v-82.453
		l291.774-106.313V272.096z"/>
	<g>
		<path d="M65.096,230.233l-5.766,2.102L47.494,269.21l6.446-2.349l0.078-0.028l2.498-8.082l11.322-4.126l2.497,6.263l6.6-2.405
			L65.158,230.38L65.096,230.233z M65.567,248.884l-6.782,2.471l3.391-10.925L65.567,248.884z"/>
		<polygon points="100.27,237.001 87.687,222.23 81.928,224.329 81.928,256.663 88.192,254.381 88.192,234.386 101.203,249.64 
			106.534,247.697 106.534,215.363 100.27,217.646 		"/>
		<polygon points="112.453,213.207 112.453,220.049 120.765,217.02 120.765,242.512 127.107,240.201 127.107,214.708 135.42,211.68 
			135.42,204.838 112.562,213.167 		"/>
		<polygon points="147.643,219.743 160.413,215.091 160.522,215.051 160.522,208.438 147.643,213.13 147.643,206.997 
			162.168,201.704 162.277,201.664 162.277,195.052 141.45,202.641 141.34,202.681 141.34,235.016 162.364,227.355 162.473,227.315 
			162.473,220.701 147.643,226.105 		"/>
		<path d="M188.132,202.627c-1.355-1.28-3.563-1.751-7.162-1.541c-2.968,0.193-4.6,0.172-5.274-0.461
			c-0.306-0.287-0.442-0.728-0.442-1.428v-0.091c0-1.623,1.336-3.157,3.403-3.911c2.125-0.774,4.407-0.59,6.978,0.559l0.147,0.065
			l3.26-6.721l-0.134-0.077c-2.916-1.678-6.376-1.807-10.286-0.38c-5.694,2.074-9.67,7.536-9.67,13.279v0.091
			c0,2.488,0.549,4.212,1.678,5.271c1.55,1.454,4.038,1.602,7.553,1.374c2.865-0.186,4.281-0.026,4.892,0.549
			c0.3,0.282,0.434,0.697,0.434,1.346v0.091c0,1.815-1.433,3.421-3.833,4.296c-2.771,1.01-5.317,0.724-8.014-0.898l-0.147-0.087
			l-3.711,6.555l0.127,0.086c1.862,1.269,4.052,1.908,6.419,1.908c1.702,0,3.495-0.331,5.323-0.997
			c6.254-2.278,10.138-7.536,10.138-13.723v-0.091C189.81,205.348,189.261,203.693,188.132,202.627z"/>
		<path d="M232.27,173.963c-2.672-1.873-6.371-2.094-10.415-0.619l-10.762,3.922V209.6l10.876-3.965
			c8.475-3.087,14.626-12.103,14.626-21.436v-0.091C236.595,179.522,235.059,175.918,232.27,173.963z M229.98,186.49v0.091
			c0,5.641-3.266,10.621-8.126,12.393l-4.42,1.611v-18.925l4.535-1.652c2.199-0.8,4.116-0.698,5.543,0.302
			C229.103,181.425,229.98,183.62,229.98,186.49z"/>
		<polygon points="250.013,182.443 262.782,177.791 262.891,177.751 262.891,171.137 250.013,175.83 250.013,169.697 
			264.538,164.404 264.647,164.364 264.647,157.751 243.819,165.341 243.71,165.381 243.71,197.715 264.734,190.054 
			264.843,190.014 264.843,183.401 250.013,188.804 		"/>
		<polygon points="292.583,147.573 286.241,149.884 286.241,182.218 306.094,174.984 306.203,174.944 306.203,168.194 
			292.583,173.156 		"/>
		<path d="M328.544,134.411l-0.062-0.147l-5.767,2.102l-11.836,36.875l6.447-2.35l0.078-0.028l2.497-8.082l11.322-4.126l2.497,6.262
			l6.6-2.404L328.544,134.411z M328.952,152.914l-6.782,2.471l3.391-10.924L328.952,152.914z"/>
	</g>
	<g>
		<g>
			<path d="M63.373,173.459v-21.973c0-10.888,5.203-21.692,17.095-26.025c11.708-4.266,16.91,2.549,17.002,13.205v0.792
				l-9.198,3.352v-0.792c-0.092-5.608-2.88-8.354-7.804-6.559c-5.016,1.827-7.897,6.737-7.897,12.577v22.172
				c0,5.839,2.881,8.749,7.897,6.921c4.924-1.794,7.712-6.571,7.804-12.247v-0.792l9.198-3.351v0.792
				c-0.092,10.723-5.295,21.33-17.002,25.596C68.575,191.459,63.373,184.348,63.373,173.459z"/>
			<path d="M104.344,158.531v-40.78l9.197-3.351v40.78c0,5.84,2.881,8.848,7.898,7.02c5.018-1.828,7.898-6.936,7.898-12.775v-40.78
				l9.198-3.351v40.78c0,10.888-5.204,21.791-17.096,26.124C109.548,176.53,104.344,169.418,104.344,158.531z"/>
			<path d="M149.215,101.401l10.117-3.687v60.18l-10.117,3.687V101.401z"/>
			<path d="M171.02,93.456l15.887-5.789c11.893-4.333,17.096,2.877,17.096,13.963v19.896c0,11.086-5.204,21.989-17.096,26.322
				l-15.887,5.789V93.456z M194.805,104.586c0-5.741-3.066-8.682-7.898-6.922l-6.689,2.437v40.186l6.689-2.437
				c4.831-1.76,7.898-6.837,7.898-12.775V104.586z"/>
			<path d="M243.372,117.474v9.799l-29.227,10.649v-60.18l29.227-10.649v9.799l-19.11,6.963v15.936l15.533-5.66v9.799l-15.533,5.66
				v14.847L243.372,117.474z"/>
			<path d="M274.783,71.385c-0.092-3.727-2.415-5.851-6.689-4.293c-3.809,1.388-6.41,4.414-6.41,9.561
				c0,11.977,23.321-4.736,23.321,17.633c0,0.792-0.187,18.38-15.424,23.931c-14.679,5.349-17.374-4.458-17.745-9.668v-1.188
				l8.919-3.25c1.115,6.918,7.155,4.718,8.27,4.311c0.556-0.203,6.782-2.867,6.782-10.488c0-12.175-23.321,3.449-23.321-18.129
				c0-3.761,0.836-17.329,15.702-22.746c15.052-5.484,15.795,7.707,15.795,10.973v1.188l-9.199,3.351V71.385z"/>
			<path d="M323.416,88.308v9.799l-29.226,10.649v-60.18l29.226-10.649v9.799l-19.11,6.963v15.936l15.534-5.66v9.799l-15.534,5.66
				v14.847L323.416,88.308z"/>
		</g>
	</g>
	<g>
		<g>
			<path d="M60.483,302.954l9.109-3.319v49.893l15.679-5.738v9.705l-24.788,9.057V302.954z"/>
			<path d="M91.371,291.664l9.109-3.319v49.893l15.679-5.738v9.705l-24.788,9.057V291.664z"/>
			<path d="M146.505,271.539l11.782,55.305l-9.105,3.318l-1.964-9.576l-14.994,5.463l-1.964,11.008l-9.104,3.318l11.781-63.89
				L146.505,271.539z M134.099,315.465l11.247-4.098l-5.356-26.28l-0.536,0.195L134.099,315.465z"/>
			<path d="M181.604,305.193l-7.045-20.963l-1.342-4.443v41.617l-8.654,3.153V264.96l10.146-3.697l9.499,27.6l10.251-34.796
				l11.19-4.076v59.597l-8.654,3.153v-43.625l-1.844,9.144l-6.286,24.308L181.604,305.193z"/>
			<path d="M237.2,238.494l11.782,55.305l-9.105,3.317l-1.964-9.576l-14.994,5.464l-1.964,11.007l-9.104,3.318l11.781-63.89
				L237.2,238.494z M224.793,282.419l11.247-4.098l-5.356-26.279l-0.536,0.195L224.793,282.419z"/>
			<path d="M255.38,231.869l15.733-5.732c11.777-4.292,16.93,2.85,16.93,13.828v19.703c0,10.978-5.152,21.776-16.93,26.067
				l-15.733,5.732V231.869z M278.934,242.892c0-5.686-3.036-8.599-7.821-6.855l-6.625,2.415v39.797l6.625-2.415
				c4.785-1.744,7.821-6.77,7.821-12.651V242.892z"/>
			<path d="M317.646,209.181l11.782,55.305l-9.105,3.318l-1.964-9.576l-14.995,5.463l-1.964,11.008l-9.105,3.318l11.782-63.89
				L317.646,209.181z M305.239,253.107l11.246-4.099l-5.356-26.28l-0.536,0.195L305.239,253.107z"/>
		</g>
	</g>
	<g>
		<g>
			<path d="M198.019,355.714c-2.306,0.84-4.019-0.642-4.019-3.305v-0.026c0-2.636,1.679-5.407,4.086-6.284
				c1.477-0.539,2.361-0.278,3.089,0.304l-1.097,1.897c-0.605-0.429-1.22-0.602-2.004-0.316c-1.321,0.481-2.272,2.126-2.272,3.716
				v0.026c0,1.589,0.929,2.576,2.272,2.086c0.896-0.327,1.444-0.95,2.06-1.837l1.097,0.912
				C200.425,354.201,199.53,355.163,198.019,355.714z"/>
			<path d="M208.886,351.595l-0.717-1.818l-3.314,1.208l-0.716,2.34l-1.758,0.64l3.358-10.563l1.59-0.579l3.358,8.116
				L208.886,351.595z M206.512,345.572l-1.041,3.386l2.082-0.759L206.512,345.572z"/>
			<path d="M217.146,348.586l-1.679-2.355l-1.355,0.493v2.967l-1.724,0.628v-9.272l3.582-1.305c1.847-0.673,2.955,0.075,2.955,1.983
				v0.026c0,1.497-0.683,2.687-1.679,3.486l1.914,2.615L217.146,348.586z M217.179,342.466c0-0.874-0.515-1.137-1.354-0.831
				l-1.713,0.624v2.663l1.746-0.636c0.839-0.306,1.321-1.011,1.321-1.793V342.466z"/>
			<path d="M221.089,347.149v-9.272l5.91-2.154v1.815l-4.198,1.53v1.881l3.694-1.346v1.815l-3.694,1.346v1.947l4.254-1.55v1.815
				L221.089,347.149z"/>
			<path d="M237.35,341.224l-3.728,1.358v-9.272l3.638-1.326c1.601-0.583,2.586-0.002,2.586,1.455v0.027
				c0,1.046-0.47,1.8-1.03,2.376c0.907,0.08,1.467,0.499,1.467,1.744v0.026C240.283,339.307,239.118,340.579,237.35,341.224z
				 M238.134,334.408c0-0.609-0.403-0.807-1.131-0.542l-1.702,0.62v1.961l1.589-0.579c0.761-0.277,1.243-0.744,1.243-1.433V334.408z
				 M238.57,337.958c0-0.623-0.391-0.864-1.276-0.542l-1.993,0.726v2.04l2.049-0.747c0.761-0.277,1.22-0.762,1.22-1.451V337.958z"/>
			<path d="M242.356,339.4v-9.272l5.91-2.154v1.815l-4.197,1.53v1.881l3.694-1.346v1.815l-3.694,1.346v1.947l4.253-1.55v1.815
				L242.356,339.4z"/>
			<path d="M252.254,328.375v1.974l3.739-1.362v1.854l-3.739,1.362v3.59l-1.724,0.628v-9.272l5.966-2.174v1.854L252.254,328.375z"/>
			<path d="M262.001,332.401c-2.418,0.881-4.154-0.62-4.154-3.256v-0.026c0-2.636,1.758-5.435,4.176-6.317
				c2.418-0.881,4.153,0.62,4.153,3.256v0.026C266.176,328.72,264.419,331.52,262.001,332.401z M264.374,326.741
				c0-1.59-0.985-2.555-2.373-2.049c-1.388,0.506-2.351,2.155-2.351,3.745v0.026c0,1.589,0.985,2.555,2.373,2.049
				c1.388-0.506,2.351-2.155,2.351-3.745V326.741z"/>
			<path d="M273.021,328.226l-1.679-2.355l-1.355,0.493v2.967l-1.724,0.628v-9.272l3.582-1.305c1.847-0.673,2.955,0.075,2.955,1.983
				v0.026c0,1.497-0.683,2.686-1.679,3.486l1.914,2.614L273.021,328.226z M273.055,322.107c0-0.874-0.515-1.137-1.354-0.831
				l-1.713,0.624v2.663l1.746-0.636c0.84-0.306,1.321-1.011,1.321-1.793V322.107z"/>
			<path d="M276.964,326.79v-9.272l5.91-2.154v1.815l-4.197,1.53v1.881l3.694-1.346v1.815l-3.694,1.346v1.947l4.253-1.55v1.815
				L276.964,326.79z"/>
			<path d="M292.487,313.742v7.392l-1.724,0.628v-7.392l-2.384,0.869v-1.881l6.492-2.365v1.881L292.487,313.742z"/>
			<path d="M301.524,317.84v-3.722l-3.179,1.159v3.722l-1.724,0.628v-9.272l1.724-0.628v3.669l3.179-1.159v-3.669l1.724-0.628v9.272
				L301.524,317.84z"/>
			<path d="M305.754,316.299v-9.272l5.91-2.154v1.815l-4.197,1.53v1.881l3.694-1.346v1.815l-3.694,1.346v1.947l4.253-1.55v1.815
				L305.754,316.299z"/>
			<path d="M321.959,310.554c-2.306,0.84-4.019-0.642-4.019-3.304v-0.026c0-2.636,1.679-5.407,4.086-6.284
				c1.478-0.538,2.362-0.278,3.089,0.304l-1.097,1.897c-0.605-0.429-1.22-0.602-2.003-0.316c-1.321,0.481-2.272,2.126-2.272,3.716
				v0.026c0,1.589,0.929,2.576,2.272,2.086c0.895-0.326,1.444-0.95,2.059-1.836l1.097,0.911
				C324.366,309.041,323.47,310.003,321.959,310.554z"/>
			<path d="M332.89,306.412l-0.716-1.818l-3.314,1.208l-0.717,2.341l-1.757,0.64l3.358-10.563l1.59-0.579l3.358,8.115
				L332.89,306.412z M330.516,300.389l-1.041,3.386l2.082-0.759L330.516,300.389z"/>
			<path d="M336.393,305.136v-9.272l1.724-0.628v7.418l3.907-1.423v1.854L336.393,305.136z"/>
			<path d="M343.763,302.45v-9.272l1.724-0.628v7.418l3.907-1.423v1.854L343.763,302.45z"/>
		</g>
	</g>
	<g>
		<g>
			<path d="M357.334,5.924v6.98l-1.627,0.592v-6.98l-2.25,0.821V5.559l6.128-2.233v1.777L357.334,5.924z"/>
			<path d="M367.111,9.346V3.629l-2.081,4.499l-0.043,0.016l-2.06-2.953v5.679l-1.596,0.582V2.695l1.754-0.639l1.944,2.995
				l1.944-4.412L368.728,0v8.757L367.111,9.346z"/>
		</g>
	</g>
</g>
</svg>
