<?xml version="1.0" encoding="UTF-8"?>
<svg width="1499px" height="500px" viewBox="0 0 1499 500" version="1.1" xmlns="http://www.w3.org/2000/svg" xmlns:xlink="http://www.w3.org/1999/xlink">
    <!-- Generator: Sketch 55.2 (78181) - https://sketchapp.com -->
    <title>checkers</title>
    <desc>Created with Sketch.</desc>
    <defs>
        <rect id="path-1" x="0.094" y="0" width="1499" height="500"></rect>
    </defs>
    <g id="Page-1" stroke="none" stroke-width="1" fill="none" fill-rule="evenodd">
        <g id="checkers" transform="translate(-0.094000, 0.000000)">
            <mask id="mask-2" fill="white">
                <use xlink:href="#path-1"></use>
            </mask>
            <use id="Mask" fill="#A9C2E5" fill-rule="nonzero" xlink:href="#path-1"></use>
            <path d="M750.094,0 L1000.125,0 L1000.125,250.1 L750.094,250.1 L750.094,0 Z M1000.125,250.1 L1250.154,250.1 L1250.154,500.1 L1000.125,500.1 L1000.125,250.1 Z M1250.154,0 L1500.184,0 L1500.184,250.1 L1250.154,250.1 L1250.154,0 Z M1500.184,250.1 L1750.154,250.1 L1750.154,500.1 L1500.184,500.1 L1500.184,250.1 Z M1750.154,0 L2000.184,0 L2000.184,250.1 L1750.154,250.1 L1750.154,0 Z M500.063,250.1 L750.094,250.1 L750.094,500.1 L500.063,500.1 L500.063,250.1 Z M250,0 L500.063,0 L500.063,250.1 L250,250.1 L250,0 Z M0.032,250.1 L250.032,250.1 L250.032,500.1 L0.032,500.1 L0.032,250.1 Z M-250,0 L0.032,0 L0.032,250.1 L-250,250.1 L-250,0 L-250,0 Z" fill="#F48256" mask="url(#mask-2)"></path>
        </g>
    </g>
</svg>