<?xml version="1.0" encoding="UTF-8"?>
<svg width="57px" height="56px" viewBox="0 0 57 56" version="1.1" xmlns="http://www.w3.org/2000/svg" xmlns:xlink="http://www.w3.org/1999/xlink">
    <!-- Generator: Sketch 55.2 (78181) - https://sketchapp.com -->
    <title>Slice</title>
    <desc>Created with Sketch.</desc>
    <g id="Page-1" stroke="none" stroke-width="1" fill="none" fill-rule="evenodd">
        <g id="social_icons" transform="translate(-1.000000, 0.000000)" fill="#FFFFFF">
            <path d="M285.24,6.6 C283.380923,9.41520589 281.046088,11.8853934 278.34,13.9 C278.368,14.5 278.379,15.1 278.379,15.7 C278.379,34.3 264.469,55.7000659 239.028,55.7000659 C231.497944,55.713915 224.128418,53.5239145 217.828,49.4 C218.909,49.5 220.01,49.6 221.128,49.6 C227.364469,49.5772891 233.413342,47.4647607 238.308,43.6 C232.341542,43.4522825 227.13802,39.5056443 225.387,33.8 C226.239031,34.0008874 227.111609,34.1015695 227.987,34.1 C229.218563,34.0878484 230.443634,33.9198463 231.633,33.6 C225.133137,32.2069671 220.500428,26.4473827 220.533,19.8 L220.533,19.6 C222.44114,20.7061459 224.592721,21.3244163 226.797,21.4 C220.710895,17.1913929 218.852867,9.02805113 222.518,2.6 C229.484218,11.3482257 239.860189,16.6983528 251.027,17.3 C250.785277,16.2505665 250.664491,15.1769097 250.667,14.1 C250.629959,10.395542 252.0668,6.82825182 254.661125,4.18366106 C257.255449,1.5390703 260.794513,0.0340458163 264.499,-2.41374455e-05 C268.351549,-0.00727403838 272.024116,1.62982846 274.594,4.5 C277.685788,3.84641274 280.651892,2.69833072 283.378,1.1 C282.343148,4.31454636 280.184182,7.04831338 277.297,8.8 C280.042766,8.48317857 282.722499,7.74096368 285.24,6.6 L285.24,6.6 Z M143.101,36.2 L149.885,36.2 L151.005,28 L143.105,28 L143.105,23.2 C143.105,20.3 144.973,18.6 146.714,18.6 L151.383,18.6 L151.383,11.8 C149.396878,11.2589457 147.340056,11.0229168 145.283,11.1 C140.802,11.1 134.331,12.9 134.331,22.1 L134.331,28 L127.05,28 L127.05,36.2 L134.331,36.2 L134.331,55.5 C120.642688,53.522614 110.459637,41.8301757 110.381,28 C110.381,12.7 123.081,0.2 138.746,0.2 C154.411,0.2 167.111,12.7 167.111,28 C167.050949,41.8550108 156.83049,53.5659537 143.111,55.5 L143.111,36.2 L143.101,36.2 Z M56.229,9.6 C55.5153796,7.74414059 54.3976974,6.07035003 52.957,4.7 C51.5501801,3.26085157 49.8302205,2.16577182 47.931,1.5 C45.7309486,0.66410717 43.4003736,0.223992769 41.047,0.2 C38.021,0.1 37.055,3.63797881e-12 29.353,3.63797881e-12 C21.651,3.63797881e-12 20.681,0.1 17.653,0.2 C15.2993023,0.22400104 12.9684004,0.664113232 10.768,1.5 C8.86967457,2.16701385 7.15030733,3.26193428 5.743,4.7 C4.30258788,6.07018455 3.18552898,7.74406486 2.473,9.6 C1.64705078,11.7744113 1.2005648,14.0744906 1.153,16.4 C1.015,19.4 0.984,20.3 0.984,27.9 C0.984,35.4 1.015,36.4 1.153,39.3 C1.2005648,41.6255094 1.64705078,43.9255887 2.473,46.1 C3.18552898,47.9559351 4.30258788,49.6298155 5.743,51 C7.17326032,52.4338336 8.88390075,53.5572393 10.768,54.3 C12.9885438,55.0481066 15.3102991,55.4527698 17.653,55.5 C20.678,55.7 21.645,55.7 29.353,55.7 C37.061,55.7 38.021,55.7 41.047,55.5 C43.3893752,55.4527775 45.7108021,55.0481128 47.931,54.3 C49.8160284,53.5584648 51.527233,52.4349121 52.957,51 C54.3976974,49.62965 55.5153796,47.9558594 56.229,46.1 C57.0532949,43.925229 57.4987438,41.6252651 57.546,39.3 C57.684,36.4 57.718,35.4 57.718,27.9 C57.718,20.3 57.684,19.4 57.546,16.4 C57.4987438,14.0747349 57.0532949,11.774771 56.229,9.6 Z M52.44,39.1 C52.4144781,40.8763077 52.0847043,42.6351015 51.465,44.3 C51.0017202,45.5102866 50.2763837,46.6030723 49.341,47.5 C48.4316259,48.4434941 47.3151894,49.1624504 46.08,49.6 C44.3910092,50.2077386 42.6079602,50.5124176 40.813,50.5 C37.822,50.7 36.926,50.7 29.353,50.7 C21.78,50.7 20.881,50.7 17.889,50.5 C16.0940926,50.5117688 14.3111564,50.2071092 12.622,49.6 C11.3872961,49.1614618 10.2710733,48.4426431 9.361,47.5 C8.42779238,46.6018597 7.70366793,45.509357 7.24,44.3 C6.61936502,42.6352906 6.28890591,40.8764499 6.263,39.1 C6.125,36.2 6.097,35.3 6.097,27.9 C6.097,20.4 6.125,19.6 6.263,16.6 C6.28890591,14.8235501 6.61936502,13.0647094 7.24,11.4 C7.70366793,10.190643 8.42779238,9.09814026 9.361,8.2 C10.302553,7.32096478 11.4116429,6.64075019 12.622,6.2 C14.3011729,5.54539849 16.0867559,5.20638521 17.889,5.2 C20.881,5.1 21.777,5 29.353,5 C36.929,5 37.822,5.1 40.813,5.2 C42.6153145,5.20565051 44.4010309,5.54468913 46.08,6.2 C47.2908132,6.63980467 48.400083,7.32012958 49.341,8.2 C50.2763837,9.0969277 51.0017202,10.1897134 51.465,11.4 C52.0847043,13.0648985 52.4144781,14.8236923 52.44,16.6 C52.577,19.6 52.606,20.4 52.606,27.9 C52.606,35.3 52.577,36.2 52.44,39.1 L52.44,39.1 Z M44.493,16.3 C43.6005907,16.3270552 42.7353008,15.9913585 42.0946309,15.3695318 C41.453961,14.7477051 41.09259,13.8928193 41.0929997,13 C41.1476532,11.1590863 42.6557752,9.69507299 44.4975,9.69507299 C46.3392248,9.69507299 47.8473468,11.1590863 47.902,13 C47.9008116,13.8939055 47.5376862,14.7492309 46.8954143,15.3709667 C46.2531425,15.9927024 45.3864723,16.3278509 44.493,16.3 L44.493,16.3 Z M29.353,13.6 C21.4913313,13.7451634 15.2217415,20.2103375 15.3180734,28.0727562 C15.4144054,35.9351749 21.8405146,42.2447988 29.70338,42.1975684 C37.5662454,42.1498051 43.9156599,35.7630087 43.917,27.9 C43.8427804,19.9299867 37.3230375,13.5284264 29.353,13.6 L29.353,13.6 Z M29.353,37.1 C24.2644432,36.9882504 20.2217542,32.7873102 20.3053828,27.6982136 C20.3890114,22.609117 24.5675476,18.5432754 29.6570286,18.5987804 C34.7465096,18.6542854 38.8353797,22.81029 38.8081367,27.9 C38.7769293,30.3746883 37.7626464,32.7353551 35.988884,34.4612794 C34.2151216,36.1872037 31.827613,37.1365826 29.353,37.1 L29.353,37.1 Z"></path>
        </g>
    </g>
</svg>