<?xml version="1.0" encoding="UTF-8"?>
<svg width="68px" height="56px" viewBox="0 0 68 56" version="1.1" xmlns="http://www.w3.org/2000/svg" xmlns:xlink="http://www.w3.org/1999/xlink">
    <!-- Generator: Sketch 55.2 (78181) - https://sketchapp.com -->
    <title>social_icons-path</title>
    <desc>Created with Sketch.</desc>
    <g id="Page-1" stroke="none" stroke-width="1" fill="none" fill-rule="evenodd">
        <path d="M67.412,6.60002414 C65.5529228,9.41523003 63.218088,11.8854175 60.512,13.9000241 C60.54,14.5000241 60.551,15.1000241 60.551,15.7000241 C60.551,34.3000241 46.641,55.70009 21.2,55.70009 C13.6699439,55.7139392 6.30041812,53.5239386 0,49.4000241 C1.081,49.5000241 2.182,49.6000241 3.3,49.6000241 C9.53646857,49.5773132 15.5853416,47.4647848 20.48,43.6000241 C14.5135415,43.4523066 9.31001988,39.5056684 7.559,33.8000241 C8.41103054,34.0009115 9.28360905,34.1015936 10.159,34.1000241 C11.3905626,34.0878725 12.6156336,33.9198704 13.805,33.6000241 C7.30513717,32.2069912 2.672428,26.4474068 2.705,19.8000241 L2.705,19.6000241 C4.61314017,20.70617 6.76472126,21.3244405 8.969,21.4000241 C2.88289524,17.1914171 1.02486654,9.02807527 4.69,2.60002414 C11.6562181,11.3482498 22.032189,16.6983769 33.199,17.3000241 C32.957277,16.2505906 32.8364906,15.1769338 32.839,14.1000241 C32.801959,10.3955661 34.2387999,6.82827596 36.8331247,4.1836852 C39.4274495,1.53909444 42.9665132,0.0340699537 46.671,0 C50.5235493,-0.00724990093 54.1961159,1.6298526 56.766,4.50002414 C59.8577879,3.84643688 62.8238915,2.69835486 65.55,1.10002414 C64.515148,4.3145705 62.3561822,7.04833752 59.469,8.80002414 C62.2147662,8.48320271 64.8944993,7.74098781 67.412,6.60002414 L67.412,6.60002414 Z" id="social_icons-path" fill="#FFFFFF"></path>
    </g>
</svg>